<?xml version="1.0" encoding="UTF-8" standalone="no"?>
<!-- Created with Inkscape (http://www.inkscape.org/) -->

<svg
   width="210mm"
   height="297mm"
   viewBox="0 0 210 297"
   version="1.1"
   id="svg5"
   sodipodi:docname="WallFactory-020.svg"
   inkscape:version="1.1 (c68e22c387, 2021-05-23)"
   xmlns:inkscape="http://www.inkscape.org/namespaces/inkscape"
   xmlns:sodipodi="http://sodipodi.sourceforge.net/DTD/sodipodi-0.dtd"
   xmlns:xlink="http://www.w3.org/1999/xlink"
   xmlns="http://www.w3.org/2000/svg"
   xmlns:svg="http://www.w3.org/2000/svg">
  <sodipodi:namedview
     id="namedview7"
     pagecolor="#ffffff"
     bordercolor="#666666"
     borderopacity="1.0"
     inkscape:pageshadow="2"
     inkscape:pageopacity="0.0"
     inkscape:pagecheckerboard="0"
     inkscape:document-units="mm"
     showgrid="false"
     inkscape:snap-smooth-nodes="true"
     inkscape:object-paths="true"
     inkscape:snap-global="false"
     inkscape:zoom="1.3719136"
     inkscape:cx="412.19797"
     inkscape:cy="168.0135"
     inkscape:window-width="1920"
     inkscape:window-height="951"
     inkscape:window-x="-8"
     inkscape:window-y="-8"
     inkscape:window-maximized="1"
     inkscape:current-layer="layer1"
     inkscape:snap-center="true"
     inkscape:snap-object-midpoints="false" />
  <defs
     id="defs2">
    <linearGradient
       inkscape:collect="always"
       id="linearGradient17245">
      <stop
         style="stop-color:#aaffaa;stop-opacity:1;"
         offset="0"
         id="stop17241" />
      <stop
         style="stop-color:#aaffaa;stop-opacity:0;"
         offset="1"
         id="stop17243" />
    </linearGradient>
    <inkscape:path-effect
       effect="taper_stroke"
       id="path-effect2362"
       is_visible="true"
       lpeversion="1"
       stroke_width="1.9"
       attach_start="0.5"
       end_offset="0.5"
       start_smoothing="0.5"
       end_smoothing="0.5"
       jointype="extrapolated"
       start_shape="center"
       end_shape="center"
       miter_limit="100" />
    <radialGradient
       inkscape:collect="always"
       xlink:href="#linearGradient17245"
       id="radialGradient17247"
       cx="193.71689"
       cy="74.731079"
       fx="193.71689"
       fy="74.731079"
       r="13.364318"
       gradientUnits="userSpaceOnUse" />
  </defs>
  <g
     inkscape:label="Layer 1"
     inkscape:groupmode="layer"
     id="layer1">
    <path
       style="fill:#80ffb3;fill-opacity:1;stroke:#d5ffe6;stroke-width:1;stroke-linecap:butt;stroke-linejoin:round;stroke-miterlimit:4;stroke-dasharray:none;stroke-opacity:1;paint-order:stroke markers fill"
       d="m 184.99821,29.314285 -0.38571,4.725001 0.72321,5.64107 -1.39821,-2.748214 -0.96429,1.542857 -0.0482,-2.217857 -2.16965,0.385715 1.54286,-1.928572 -3.7125,-1.591071 3.51964,-0.771428 -0.77142,-2.796428 1.92857,2.169641 z"
       id="path21403" />
    <circle
       style="fill:url(#radialGradient17247);stroke:none;stroke-width:1;stroke-linecap:round;stroke-linejoin:round;stroke-miterlimit:4;stroke-dasharray:none;paint-order:stroke markers fill;fill-opacity:1"
       id="path16780"
       cx="193.71689"
       cy="74.731079"
       r="13.364318" />
    <path
       id="ellipse1587"
       style="fill:#808080;stroke:none;stroke-width:1;stroke-linecap:round;stroke-linejoin:round"
       d="m 92.277497,88.006955 a 34.023533,11.32556 0 0 0 -26.93474,4.40763 h -7.088942 v 6.918167 A 34.023533,11.32556 0 0 0 92.277497,110.65855 34.023533,11.32556 0 0 0 126.30119,99.332752 v -6.918167 h -7.08895 a 34.023533,11.32556 0 0 0 -26.934743,-4.40763 z" />
    <path
       id="path8609"
       style="font-variation-settings:normal;opacity:1;vector-effect:none;fill:#666666;fill-opacity:1;stroke:none;stroke-width:1;stroke-linecap:butt;stroke-linejoin:miter;stroke-miterlimit:4;stroke-dasharray:none;stroke-dashoffset:0;stroke-opacity:1;-inkscape-stroke:none;stop-color:#000000;stop-opacity:1"
       d="m 107.8102,89.267632 -4.72461,4.847445 0.9656,8.925383 v 6.91546 a 34.023533,11.32556 0 0 0 22.25,-10.623168 v -6.918167 h -7.08895 A 34.023533,11.32556 0 0 0 107.8102,89.267632 Z" />
    <path
       id="path3977"
       style="font-variation-settings:normal;opacity:1;vector-effect:none;fill:#999999;fill-opacity:1;stroke:none;stroke-width:1;stroke-linecap:butt;stroke-linejoin:miter;stroke-miterlimit:4;stroke-dasharray:none;stroke-dashoffset:0;stroke-opacity:1;-inkscape-stroke:none;stop-color:#000000;stop-opacity:1"
       d="m 66.086046,92.128806 a 34.023533,11.32556 0 0 0 -0.743289,0.285779 h -7.088942 v 6.918167 a 34.023533,11.32556 0 0 0 9.558011,7.843738 v -6.91816 z" />
    <path
       id="path3767"
       style="font-variation-settings:normal;opacity:1;vector-effect:none;fill:#b3b3b3;fill-opacity:1;stroke:none;stroke-width:1;stroke-linecap:butt;stroke-linejoin:miter;stroke-miterlimit:4;stroke-dasharray:none;stroke-dashoffset:0;stroke-opacity:1;-inkscape-stroke:none;stop-color:#000000;stop-opacity:1"
       d="m 58.253815,92.414585 v 6.918167 a 34.023533,11.32556 0 0 0 1.346025,3.092228 v -6.918165 l 0.222987,-3.09223 z" />
    <path
       id="ellipse1585"
       style="fill:#b3b3b3;stroke:none;stroke-width:1;stroke-linecap:round;stroke-linejoin:round"
       d="m 92.277497,81.088788 a 34.023534,11.32556 0 0 0 -17.007786,1.516729 l -9.745861,-0.09931 -5.899006,6.745213 a 34.023534,11.32556 0 0 0 -0.245962,0.28105 l -0.04797,0.05472 h 0.0094 a 34.023534,11.32556 0 0 0 -1.08655,2.827396 34.023534,11.32556 0 0 0 34.023683,11.325794 34.023534,11.32556 0 0 0 34.023685,-11.325794 34.023534,11.32556 0 0 0 -1.07979,-2.827396 h 0.002 l -0.0223,-0.02501 a 34.023534,11.32556 0 0 0 -0.5399,-0.620878 l -5.12328,-5.885174 -8.48768,-0.08648 A 34.023534,11.32556 0 0 0 92.277515,81.088775 Z" />
    <path
       id="path8691"
       style="font-variation-settings:normal;opacity:1;vector-effect:none;fill:#999999;fill-opacity:1;stroke:none;stroke-width:1;stroke-linecap:butt;stroke-linejoin:miter;stroke-miterlimit:4;stroke-dasharray:none;stroke-dashoffset:0;stroke-opacity:1;-inkscape-stroke:none;stop-color:#000000;stop-opacity:1"
       d="m 113.9207,82.998718 -10.83511,11.116359 0.9656,8.922683 a 34.023533,11.32556 0 0 0 22.25,-10.623175 34.023533,11.32556 0 0 0 -1.0798,-2.827396 h 0.002 l -0.0223,-0.02501 a 34.023533,11.32556 0 0 0 -0.5399,-0.620878 l -5.12328,-5.885174 z" />
    <path
       id="path3408"
       style="font-variation-settings:normal;opacity:1;vector-effect:none;fill:#cccccc;fill-opacity:1;stroke:none;stroke-width:1;stroke-linecap:butt;stroke-linejoin:miter;stroke-miterlimit:4;stroke-dasharray:none;stroke-dashoffset:0;stroke-opacity:1;-inkscape-stroke:none;stop-color:#000000;stop-opacity:1"
       d="m 77.322537,82.257582 a 34.023533,11.32556 0 0 0 -2.052826,0.347935 l -9.745861,-0.09931 -5.899006,6.745213 a 34.023533,11.32556 0 0 0 -0.245962,0.28105 l -0.04797,0.05472 h 0.0094 a 34.023533,11.32556 0 0 0 -1.08655,2.827396 34.023533,11.32556 0 0 0 9.558011,7.843744 z" />
    <path
       id="path3262"
       style="fill:#f9f9f9;stroke:none;stroke-width:1;stroke-linecap:round;stroke-linejoin:round"
       d="m 65.52385,82.506203 -5.899006,6.745213 a 34.023533,11.32556 0 0 0 -0.245962,0.28105 l -0.04797,0.05472 h 0.0094 a 34.023533,11.32556 0 0 0 -1.08655,2.827396 34.023533,11.32556 0 0 0 1.346026,3.09223 l 9.86141,-12.343926 -0.474355,-0.621555 z" />
    <path
       id="path3355"
       style="fill:none;stroke:#ffb380;stroke-width:1;stroke-linecap:round;stroke-linejoin:round"
       d="m 92.277497,81.088788 a 34.023534,11.32556 0 0 0 -17.007786,1.516729 l -9.745861,-0.09931 -5.899006,6.745213 a 34.023534,11.32556 0 0 0 -0.245962,0.28105 l -0.04797,0.05472 h 0.0094 a 34.023534,11.32556 0 0 0 -1.08655,2.827396 34.023534,11.32556 0 0 0 34.023683,11.325794 34.023534,11.32556 0 0 0 34.023685,-11.325794 34.023534,11.32556 0 0 0 -1.07979,-2.827396 h 0.002 l -0.0223,-0.02501 a 34.023534,11.32556 0 0 0 -0.5399,-0.620878 l -5.12328,-5.885174 -8.48768,-0.08648 A 34.023534,11.32556 0 0 0 92.277515,81.088775 Z" />
    <ellipse
       style="fill:#ffffff;stroke:none;stroke-width:1;stroke-linecap:round;stroke-linejoin:round"
       id="path1503"
       cx="92.277344"
       cy="85.496506"
       rx="28.243979"
       ry="9.3290195" />
    <path
       id="path3026"
       style="fill:#f2f2f2;stroke:none;stroke-width:1;stroke-linecap:round;stroke-linejoin:round"
       d="m 74.937257,92.85778 a 28.243979,9.3290199 0 0 0 0.145957,0.03986 28.243979,9.3290199 0 0 0 1.502794,0.355366 28.243979,9.3290199 0 0 0 1.569012,0.322937 28.243979,9.3290199 0 0 0 1.630504,0.287806 28.243979,9.3290199 0 0 0 1.683212,0.251326 28.243979,9.3290199 0 0 0 1.729835,0.215515 28.243979,9.3290199 0 0 0 1.769026,0.177008 28.243979,9.3290199 0 0 0 1.799432,0.138498 28.243979,9.3290199 0 0 0 1.823762,0.09931 28.243979,9.3290199 0 0 0 1.839298,0.06013 28.243979,9.3290199 0 0 0 1.847408,0.02027 28.243979,9.3290199 0 0 0 1.847412,-0.02027 28.243979,9.3290199 0 0 0 1.839302,-0.06013 28.243979,9.3290199 0 0 0 1.823083,-0.09931 28.243979,9.3290199 0 0 0 1.800108,-0.138498 28.243979,9.3290199 0 0 0 1.768348,-0.177008 28.243979,9.3290199 0 0 0 1.72984,-0.215515 28.243979,9.3290199 0 0 0 1.68388,-0.251326 28.243979,9.3290199 0 0 0 1.62983,-0.287806 28.243979,9.3290199 0 0 0 1.56969,-0.322937 28.243979,9.3290199 0 0 0 1.50212,-0.355366 28.243979,9.3290199 0 0 0 1.42847,-0.387119 28.243979,9.3290199 0 0 0 1.3494,-0.417526 28.243979,9.3290199 0 0 0 1.26359,-0.445218 28.243979,9.3290199 0 0 0 1.17237,-0.472248 28.243979,9.3290199 0 0 0 1.07642,-0.495891 28.243979,9.3290199 0 0 0 0.97573,-0.518862 28.243979,9.3290199 0 0 0 0.87168,-0.538455 28.243979,9.3290199 0 0 0 0.76288,-0.556024 28.243979,9.3290199 0 0 0 0.65071,-0.570883 28.243979,9.3290199 0 0 0 0.53652,-0.584395 28.243979,9.3290199 0 0 0 0.41962,-0.59453 28.243979,9.3290199 0 0 0 0.30137,-0.602638 28.243979,9.3290199 0 0 0 0.1811,-0.607367 28.243979,9.3290199 0 0 0 0.0601,-0.610068 28.243979,9.3290199 0 0 0 -0.007,-0.206057 28.243979,9.3290199 0 0 0 -0.0209,-0.206736 28.243979,9.3290199 0 0 0 -0.0345,-0.206058 28.243979,9.3290199 0 0 0 -0.048,-0.205383 28.243979,9.3290199 0 0 0 -0.0622,-0.205383 28.243979,9.3290199 0 0 0 -0.0142,-0.03851 26.541776,8.6986805 0 0 0 -6.9e-4,-6.92e-4 26.541776,8.6986805 0 0 0 -25.093415,-5.864903 26.541776,8.6986805 0 0 0 -26.542151,8.699055 26.541776,8.6986805 0 0 0 6.238891,5.596012 z" />
    <path
       id="path2111"
       style="fill:#cccccc;stroke:none;stroke-width:1;stroke-linecap:round;stroke-linejoin:round"
       d="m 76.459647,79.019419 c 0,0 3.316383,1.348445 7.813314,3.108447 a 18.472065,4.4754078 0 0 0 -7.624112,3.619201 18.472065,4.4754078 0 0 0 4.367833,2.887525 c -2.789507,1.629201 -4.557035,2.859825 -4.557035,2.859825 0,0 2.775502,-0.963293 6.653781,-2.348396 a 18.472065,4.4754078 0 0 0 12.007489,1.076235 18.472065,4.4754078 0 0 0 9.282993,-0.606689 c 3.18923,1.133985 5.33681,1.87885 5.33681,1.87885 0,0 -1.30274,-0.906121 -3.42588,-2.188279 a 18.472065,4.4754078 0 0 0 7.27747,-3.559071 18.472065,4.4754078 0 0 0 -10.57902,-4.04618 c 3.91799,-1.540569 6.72743,-2.681468 6.72743,-2.681468 0,0 -5.40092,0.567525 -11.758819,2.306507 a 18.472065,4.4754078 0 0 0 -2.860984,-0.05405 18.472065,4.4754078 0 0 0 -6.170646,0.258082 C 82.280911,79.63102 76.459647,79.019419 76.459647,79.019419 Z" />
    <path
       id="path7717"
       style="fill:#666666;stroke:none;stroke-width:1;stroke-linecap:round;stroke-linejoin:round"
       inkscape:transform-center-x="0.20277074"
       inkscape:transform-center-y="0.055365081"
       d="m 107.43214,86.411205 -8.330789,0.109558 2.530619,1.756319 -6.700618,-1.098702 -3.173275,1.704663 -1.935156,-1.792863 -7.392359,0.855374 3.735796,-1.648125 -8.152485,-0.394153 7.658722,-0.73221 -5.097963,-1.459251 7.998047,0.526313 0.34195,-1.841548 4.595002,1.538569 5.621854,-1.362166 -0.958101,1.830911 8.271236,-0.245411 -6.06289,1.266549 z" />
    <ellipse
       style="fill:none;stroke:#ffb380;stroke-width:1;stroke-linecap:round;stroke-linejoin:round"
       id="ellipse3029"
       cx="92.277344"
       cy="85.496506"
       rx="28.243979"
       ry="9.3290195" />
    <path
       style="font-variation-settings:normal;opacity:1;vector-effect:none;fill:#214478;fill-opacity:1;stroke:#d4aa00;stroke-width:1;stroke-linecap:butt;stroke-linejoin:round;stroke-miterlimit:4;stroke-dasharray:none;stroke-dashoffset:0;stroke-opacity:1;-inkscape-stroke:none;stop-color:#000000;stop-opacity:1"
       d="m 72.991926,44.333802 7.691442,-3.403832 31.774472,-1.008544 -2.52178,45.25835 -8.1958,4.160239"
       id="path859"
       sodipodi:nodetypes="ccccc" />
    <path
       id="path7304"
       style="font-variation-settings:normal;opacity:1;vector-effect:none;fill:#2c5aa0;fill-opacity:1;stroke:none;stroke-width:1;stroke-linecap:butt;stroke-linejoin:round;stroke-miterlimit:4;stroke-dasharray:none;stroke-dashoffset:0;stroke-opacity:1;-inkscape-stroke:none;stop-color:#000000;stop-opacity:1"
       d="m 106.87974,40.09865 -16.008408,0.508053 a 8.889288,36.874843 0 0 0 -0.857482,15.76653 8.889288,36.874843 0 0 0 0.881807,15.990156 l 10.844583,16.976531 1.48117,-0.751946 a 8.889288,36.874843 0 0 0 4.57122,-32.214741 8.889288,36.874843 0 0 0 -0.91289,-16.274583 z" />
    <path
       style="font-variation-settings:normal;opacity:1;vector-effect:none;fill:#5f8dd3;fill-opacity:1;stroke:none;stroke-width:1;stroke-linecap:butt;stroke-linejoin:round;stroke-miterlimit:4;stroke-dasharray:none;stroke-dashoffset:0;stroke-opacity:1;-inkscape-stroke:none;stop-color:#000000;stop-opacity:1"
       d="m 72.991926,44.333802 0.630449,37.820348 28.117885,7.185865 1.13481,-45.510486 z"
       id="path857" />
    <path
       style="font-variation-settings:normal;opacity:1;vector-effect:none;fill:none;fill-opacity:1;stroke:#000000;stroke-width:1;stroke-linecap:butt;stroke-linejoin:round;stroke-miterlimit:4;stroke-dasharray:none;stroke-dashoffset:0;stroke-opacity:1;-inkscape-stroke:none;stop-color:#000000;stop-opacity:1"
       d="m 102.87506,43.829529 9.58278,-3.908103"
       id="path1313" />
    <path
       id="path4647"
       style="font-variation-settings:normal;opacity:1;vector-effect:none;fill:#2c5aa0;fill-opacity:1;stroke:none;stroke-width:0.76483;stroke-linecap:butt;stroke-linejoin:round;stroke-miterlimit:4;stroke-dasharray:none;stroke-dashoffset:0;stroke-opacity:1;-inkscape-stroke:none;stop-color:#000000;stop-opacity:1"
       sodipodi:type="inkscape:offset"
       inkscape:radius="-1.7786216"
       inkscape:original="M 92.378906 42.910156 L 69.525391 43.296875 L 70.007812 72.224609 L 91.509766 77.720703 L 92.378906 42.910156 z "
       d="m 90.554688,44.720703 -19.220704,0.324219 0.429688,25.792969 18.02539,4.607421 z"
       transform="matrix(1.3075916,0,0,1.3073701,-17.918377,-12.270655)" />
    <path
       id="path1395"
       style="font-variation-settings:normal;opacity:1;vector-effect:none;fill:#ff9955;fill-opacity:1;stroke:none;stroke-width:0.76483;stroke-linecap:butt;stroke-linejoin:round;stroke-miterlimit:4;stroke-dasharray:none;stroke-dashoffset:0;stroke-opacity:1;-inkscape-stroke:none;stop-color:#000000;stop-opacity:1"
       sodipodi:type="inkscape:offset"
       inkscape:radius="-3.6512344"
       inkscape:original="M 92.378906 42.910156 L 69.525391 43.296875 L 70.007812 72.224609 L 91.509766 77.720703 L 92.378906 42.910156 z "
       d="m 88.632812,46.625 -15.396484,0.261719 0.375,22.490234 14.363281,3.671875 z"
       transform="matrix(1.3075916,0,0,1.3073701,-17.918377,-12.270655)" />
    <path
       id="path4569"
       style="font-variation-settings:normal;opacity:1;vector-effect:none;fill:#ffb380;fill-opacity:1;stroke:none;stroke-width:1;stroke-linecap:butt;stroke-linejoin:round;stroke-miterlimit:4;stroke-dasharray:none;stroke-dashoffset:0;stroke-opacity:1;-inkscape-stroke:none;stop-color:#000000;stop-opacity:1"
       d="m 97.977168,48.685555 -5.092201,0.08648 a 10.8852,18.449682 0 0 1 1.373056,8.968621 10.8852,18.449682 0 0 1 -10.88512,18.450021 10.8852,18.449682 0 0 1 -5.111118,-2.167333 l 0.07365,4.40763 18.780867,4.800152 z" />
    <path
       id="path4609"
       style="font-variation-settings:normal;opacity:1;vector-effect:none;fill:none;fill-opacity:1;stroke:#a05a2c;stroke-width:0.76483;stroke-linecap:butt;stroke-linejoin:bevel;stroke-miterlimit:4;stroke-dasharray:none;stroke-dashoffset:0;stroke-opacity:1;-inkscape-stroke:none;stop-color:#000000;stop-opacity:1"
       sodipodi:type="inkscape:offset"
       inkscape:radius="-3.6512344"
       inkscape:original="M 92.378906 42.910156 L 69.525391 43.296875 L 70.007812 72.224609 L 91.509766 77.720703 L 92.378906 42.910156 z "
       d="m 88.632812,46.625 -15.396484,0.261719 0.375,22.490234 14.363281,3.671875 z"
       transform="matrix(1.3075916,0,0,1.3073701,-17.918377,-12.270655)" />
    <path
       style="font-variation-settings:normal;opacity:1;vector-effect:none;fill:#afc6e9;fill-opacity:1;stroke:none;stroke-width:1;stroke-linecap:butt;stroke-linejoin:miter;stroke-miterlimit:4;stroke-dasharray:none;stroke-dashoffset:0;stroke-opacity:1;-inkscape-stroke:none;stop-color:#000000;stop-opacity:1"
       d="m 72.991926,44.333802 2.365415,2.285925 25.132829,-0.423872 2.38489,-2.366326 z"
       id="path4836" />
    <path
       style="font-variation-settings:normal;opacity:1;vector-effect:none;fill:#214478;fill-opacity:1;stroke:none;stroke-width:1;stroke-linecap:butt;stroke-linejoin:miter;stroke-miterlimit:4;stroke-dasharray:none;stroke-dashoffset:0;stroke-opacity:1;-inkscape-stroke:none;stop-color:#000000;stop-opacity:1"
       d="M 75.919198,80.340684 73.622375,82.15415 101.74026,89.340015 99.489044,86.36429 Z"
       id="path5037" />
    <path
       style="font-variation-settings:normal;opacity:1;vector-effect:none;fill:#d7e3f4;fill-opacity:1;stroke:none;stroke-width:1;stroke-linecap:butt;stroke-linejoin:miter;stroke-miterlimit:4;stroke-dasharray:none;stroke-dashoffset:0;stroke-opacity:1;-inkscape-stroke:none;stop-color:#000000;stop-opacity:1"
       d="m 72.991926,44.333802 c 7.691441,-3.403835 7.691441,-3.403835 7.691441,-3.403835 l 31.774473,-1.008541 -9.58278,3.908103 z"
       id="path6247" />
    <path
       id="path7565"
       style="font-variation-settings:normal;opacity:1;vector-effect:none;fill:none;fill-opacity:1;stroke:#2d1650;stroke-width:1;stroke-linecap:butt;stroke-linejoin:round;stroke-miterlimit:4;stroke-dasharray:none;stroke-dashoffset:0;stroke-opacity:1;-inkscape-stroke:none;stop-color:#000000;stop-opacity:1"
       d="m 72.991926,44.333802 c 7.691441,-3.403835 7.691441,-3.403835 7.691441,-3.403835 l 31.774473,-1.008541 -9.58278,3.908103 z m 0,0 7.691442,-3.403832 31.774472,-1.008544 -2.52178,45.25835 -8.1958,4.160239 m 10.71752,-49.41837 -31.774227,1.007998 -7.691685,3.404356 0.570306,34.198311 a 28.243979,9.3290198 0 0 0 -8.03765,3.973892 h -6.74e-4 l -0.01281,0.01487 a 28.243979,9.3290198 0 0 0 -0.620308,0.708707 l -5.26586,6.021642 a 34.023532,11.32556 0 0 0 -0.24596,0.28105 l -0.04798,0.05473 h 0.0094 a 34.023532,11.32556 0 0 0 -1.086551,2.827395 v 6.918168 A 34.023532,11.32556 0 0 0 92.277477,110.65855 34.023532,11.32556 0 0 0 126.30116,99.332756 v -6.918168 a 34.023532,11.32556 0 0 0 -1.0798,-2.827395 h 0.003 l -0.0222,-0.025 a 34.023532,11.32556 0 0 0 -0.53991,-0.620878 l -5.12326,-5.885174 a 28.243979,9.3290198 0 0 0 -9.22219,-4.69611 z m -39.465854,4.412157 0.630449,37.820348 28.117885,7.185865 1.13481,-45.510486 z" />
    <path
       style="fill:none;stroke:#374548;stroke-width:1;stroke-linecap:round;stroke-linejoin:round;stroke-miterlimit:4;stroke-dasharray:none"
       d="m 103.51607,107.80714 c -5.496429,-0.675 -6.171428,3.56786 -2.65178,3.08572 3.51964,-0.48215 4.91785,-3.56786 13.40356,-3.03751 8.48572,0.53036 14.70536,0.57858 17.55,0.38572 2.84465,-0.19286 7.23215,-1.44643 1.49465,-3.13393 -5.7375,-1.6875 -9.69107,3.375 -5.88215,-2.45893 3.80893,-5.833926 -1.73571,-2.699997 -3.80892,-2.989282"
       id="path14498" />
    <g
       id="g14463"
       transform="translate(-48.46971,9.4124095)">
      <path
         style="fill:#374548;stroke:none;stroke-width:1;stroke-linecap:round;stroke-linejoin:round;stroke-miterlimit:4;stroke-dasharray:none"
         d="m 156.8762,95.671094 9.84561,-4.1e-5 3.66474,-2.15931 h -9.84573 z"
         id="path12936" />
      <path
         id="rect10107"
         style="fill:none;stroke:#53676c;stroke-width:1;stroke-linecap:round;stroke-linejoin:round"
         d="m 155.68879,93.511744 h 19.5498 c 0.57554,0 1.03888,0.455008 1.03888,1.020198 v 5.657468 c 0,0.56519 -0.46334,1.0202 -1.03888,1.0202 h -19.5498 c -0.57553,0 -1.03888,-0.45501 -1.03888,-1.0202 v -5.657468 c 0,-0.56519 0.46335,-1.020198 1.03888,-1.020198 z" />
      <rect
         style="fill:#374548;stroke:none;stroke-width:1;stroke-linecap:round;stroke-linejoin:round;stroke-miterlimit:4;stroke-dasharray:none"
         id="rect11184"
         width="21.627558"
         height="7.6978612"
         x="150.98517"
         y="95.671051"
         ry="1.0201985" />
      <path
         id="rect9867"
         style="fill:none;stroke:#53676c;stroke-width:1;stroke-linecap:round;stroke-linejoin:round"
         d="m 152.02405,95.671053 h 19.5498 c 0.57553,0 1.03887,0.455008 1.03887,1.020198 v 5.657469 c 0,0.56519 -0.46334,1.02019 -1.03887,1.02019 h -19.5498 c -0.57555,0 -1.03888,-0.455 -1.03888,-1.02019 v -5.657469 c 0,-0.56519 0.46333,-1.020198 1.03888,-1.020198 z" />
      <path
         style="fill:none;stroke:#53676c;stroke-width:1;stroke-linecap:round;stroke-linejoin:round;stroke-miterlimit:4;stroke-dasharray:none"
         d="m 160.79549,99.519983 h 2.00692"
         id="path10304" />
      <path
         style="fill:none;stroke:#53676c;stroke-width:1;stroke-linecap:round;stroke-linejoin:round;stroke-miterlimit:4;stroke-dasharray:none"
         d="m 160.79549,99.519983 -3.91941,-3.84893"
         id="path10419" />
      <path
         style="fill:none;stroke:#53676c;stroke-width:1;stroke-linecap:round;stroke-linejoin:round;stroke-miterlimit:4;stroke-dasharray:none"
         d="m 162.80241,99.519983 3.9194,-3.84893"
         id="path10421" />
      <path
         style="fill:none;stroke:#53676c;stroke-width:1;stroke-linecap:round;stroke-linejoin:round;stroke-miterlimit:4;stroke-dasharray:none"
         d="m 160.79549,99.519983 -3.91941,3.848927"
         id="path10423" />
      <path
         style="fill:none;stroke:#53676c;stroke-width:1;stroke-linecap:round;stroke-linejoin:round;stroke-miterlimit:4;stroke-dasharray:none"
         d="m 162.80241,99.519983 3.9194,3.848927"
         id="path10425" />
      <ellipse
         style="fill:#4d4d4d;stroke:#333333;stroke-width:0.5;stroke-linecap:round;stroke-linejoin:round;stroke-miterlimit:4;stroke-dasharray:none"
         id="path10531"
         cx="168.8463"
         cy="99.519981"
         rx="2.6680281"
         ry="2.620055" />
      <ellipse
         style="fill:#4d4d4d;stroke:#333333;stroke-width:0.5;stroke-linecap:round;stroke-linejoin:round;stroke-miterlimit:4;stroke-dasharray:none"
         id="circle10613"
         cx="168.8463"
         cy="99.519981"
         rx="0.72329199"
         ry="0.71028662" />
      <path
         style="fill:#4d4d4d;stroke:#333333;stroke-width:0.499999;stroke-linecap:round;stroke-linejoin:round;stroke-miterlimit:4;stroke-dasharray:none"
         d="m 168.84629,98.809692 c -0.8731,-1.005497 0,-1.909767 0,-1.909767"
         id="path10953"
         sodipodi:nodetypes="cc"
         inkscape:transform-center-x="0.19402802"
         inkscape:transform-center-y="-1.6651715" />
      <path
         style="fill:#4d4d4d;stroke:#333333;stroke-width:0.499999;stroke-linecap:round;stroke-linejoin:round;stroke-miterlimit:4;stroke-dasharray:none"
         d="m 169.31122,98.975866 c -0.0107,-1.321385 1.25005,-1.462967 1.25005,-1.462967"
         id="path11168"
         sodipodi:nodetypes="cc"
         inkscape:transform-center-x="-1.0899153"
         inkscape:transform-center-y="-1.2755975" />
      <path
         style="fill:#4d4d4d;stroke:#333333;stroke-width:0.499999;stroke-linecap:round;stroke-linejoin:round;stroke-miterlimit:4;stroke-dasharray:none"
         d="m 169.5586,99.396636 c 0.85675,-1.018973 1.91519,-0.331628 1.91519,-0.331628"
         id="path11170"
         sodipodi:nodetypes="cc"
         inkscape:transform-center-x="-1.6698992"
         inkscape:transform-center-y="-0.4025098" />
      <path
         style="fill:#4d4d4d;stroke:#333333;stroke-width:0.499999;stroke-linecap:round;stroke-linejoin:round;stroke-miterlimit:4;stroke-dasharray:none"
         d="m 169.47269,99.875121 c 1.32328,-0.239774 1.68419,0.954889 1.68419,0.954889"
         id="path11172"
         sodipodi:nodetypes="cc"
         inkscape:transform-center-x="-1.4684892"
         inkscape:transform-center-y="0.81668148" />
      <path
         style="fill:#4d4d4d;stroke:#333333;stroke-width:0.499999;stroke-linecap:round;stroke-linejoin:round;stroke-miterlimit:4;stroke-dasharray:none"
         d="m 169.09368,100.18743 c 1.17064,0.65162 0.66514,1.7946 0.66514,1.7946"
         id="path11174"
         sodipodi:nodetypes="cc"
         inkscape:transform-center-x="-0.63423263"
         inkscape:transform-center-y="1.564751" />
      <path
         style="fill:#4d4d4d;stroke:#333333;stroke-width:0.499999;stroke-linecap:round;stroke-linejoin:round;stroke-miterlimit:4;stroke-dasharray:none"
         d="m 168.59891,100.18743 c 0.47025,1.23812 -0.66514,1.7946 -0.66514,1.7946"
         id="path11176"
         sodipodi:nodetypes="cc"
         inkscape:transform-center-x="0.52290905"
         inkscape:transform-center-y="1.564751" />
      <path
         style="fill:#4d4d4d;stroke:#333333;stroke-width:0.499999;stroke-linecap:round;stroke-linejoin:round;stroke-miterlimit:4;stroke-dasharray:none"
         d="m 168.2199,99.875124 c -0.45018,1.245286 -1.68419,0.954886 -1.68419,0.954886"
         id="path11178"
         sodipodi:nodetypes="cc"
         inkscape:transform-center-x="1.4684908"
         inkscape:transform-center-y="0.84727508" />
      <path
         style="fill:#4d4d4d;stroke:#333333;stroke-width:0.499999;stroke-linecap:round;stroke-linejoin:round;stroke-miterlimit:4;stroke-dasharray:none"
         d="m 168.13399,99.396637 c -1.15997,0.669773 -1.91519,-0.331628 -1.91519,-0.331628"
         id="path11180"
         sodipodi:nodetypes="cc"
         inkscape:transform-center-x="1.6699008"
         inkscape:transform-center-y="-0.17378445" />
      <path
         style="fill:#4d4d4d;stroke:#333333;stroke-width:0.499999;stroke-linecap:round;stroke-linejoin:round;stroke-miterlimit:4;stroke-dasharray:none"
         d="m 168.38138,98.975865 c -1.32701,-0.219133 -1.25006,-1.462968 -1.25006,-1.462968"
         id="path11182"
         sodipodi:nodetypes="cc"
         inkscape:transform-center-x="1.0903613"
         inkscape:transform-center-y="-1.275599" />
      <path
         style="fill:#4d4d4d;stroke:#53676c;stroke-width:1;stroke-linecap:round;stroke-linejoin:round;stroke-miterlimit:4;stroke-dasharray:none"
         d="m 156.87608,95.671053 3.66474,-2.15931"
         id="path11349" />
      <path
         style="fill:#4d4d4d;stroke:#53676c;stroke-width:1;stroke-linecap:round;stroke-linejoin:round;stroke-miterlimit:4;stroke-dasharray:none"
         d="m 166.72181,95.671053 3.66474,-2.15931"
         id="path11511" />
      <path
         style="fill:#4d4d4d;stroke:#53676c;stroke-width:1;stroke-linecap:round;stroke-linejoin:round;stroke-miterlimit:4;stroke-dasharray:none"
         d="m 151.58688,95.763798 3.66474,-2.15931"
         id="path11936" />
      <path
         style="fill:#4d4d4d;stroke:#53676c;stroke-width:1;stroke-linecap:round;stroke-linejoin:round;stroke-miterlimit:4;stroke-dasharray:none"
         d="m 172.1872,103.17282 3.66474,-2.15931"
         id="path11938" />
      <path
         id="path12185"
         style="fill:#6f8a91;stroke:none;stroke-width:1;stroke-linecap:round;stroke-linejoin:round;stroke-miterlimit:4;stroke-dasharray:none"
         d="m 170.38673,93.511784 -3.66475,2.15931 h 4.85185 c 0.57553,0 1.03894,0.455069 1.03894,1.02026 v 5.657296 c 0,0.33933 -0.16784,0.63817 -0.42589,0.82344 l 3.6e-4,6.8e-4 3.51085,-2.06863 c 0.052,-0.0251 0.10156,-0.0542 0.14817,-0.0872 l 0.006,-0.004 -7e-4,-3.5e-4 c 0.25828,-0.18525 0.42625,-0.48429 0.42625,-0.8238 v -5.657295 c 0,-0.56519 -0.46341,-1.020259 -1.03895,-1.020259 z" />
      <path
         id="path12528"
         style="fill:#6f8a91;stroke:none;stroke-width:1;stroke-linecap:round;stroke-linejoin:round;stroke-miterlimit:4;stroke-dasharray:none"
         d="m 155.68873,93.511785 c -0.15547,0 -0.30229,0.03387 -0.43447,0.09349 l -0.003,-7.2e-4 -0.0172,0.01018 c -0.0554,0.02639 -0.10782,0.05719 -0.15711,0.09243 l -3.49046,2.056687 0.003,7.19e-4 c 0.13217,-0.05961 0.27899,-0.09349 0.43447,-0.09349 h 4.85221 l 3.66474,-2.15931 z" />
      <path
         id="path13222"
         style="fill:#53676c;stroke:none;stroke-width:1;stroke-linecap:round;stroke-linejoin:round;stroke-miterlimit:4;stroke-dasharray:none"
         d="m 176.06457,93.912438 -3.61714,2.225734 c 0.10451,0.159231 0.16534,0.348879 0.16534,0.553182 v 5.657296 c 0,0.33934 -0.16784,0.63817 -0.42589,0.82345 l 3.7e-4,7.2e-4 3.51085,-2.06864 c 0.052,-0.0251 0.10155,-0.0542 0.14817,-0.0872 l 0.005,-0.004 -3.7e-4,-3.6e-4 c 0.25828,-0.18525 0.42624,-0.48429 0.42624,-0.8238 v -5.657293 c 0,-0.233481 -0.0795,-0.448028 -0.21294,-0.619607 z" />
      <path
         id="path13507"
         style="fill:none;stroke:#53676c;stroke-width:1;stroke-linecap:round;stroke-linejoin:round;stroke-miterlimit:4;stroke-dasharray:none"
         d="m 170.38673,93.511784 -3.66475,2.15931 h 4.85185 c 0.57553,0 1.03894,0.455069 1.03894,1.02026 v 5.657296 c 0,0.33933 -0.16784,0.63817 -0.42589,0.82344 l 3.6e-4,6.8e-4 3.51085,-2.06863 c 0.052,-0.0251 0.10156,-0.0542 0.14817,-0.0872 l 0.006,-0.004 -7e-4,-3.5e-4 c 0.25828,-0.18525 0.42625,-0.48429 0.42625,-0.8238 v -5.657295 c 0,-0.56519 -0.46341,-1.020259 -1.03895,-1.020259 z" />
      <path
         id="path13709"
         style="fill:#b7c4c8;stroke:none;stroke-width:1;stroke-linecap:round;stroke-linejoin:round;stroke-miterlimit:4;stroke-dasharray:none"
         d="m 155.68873,93.511785 c -0.15547,0 -0.30229,0.03387 -0.43447,0.09349 l -0.003,-7.2e-4 -0.0172,0.01018 c -0.0554,0.02639 -0.10782,0.05719 -0.15711,0.09243 l -3.49046,2.056687 0.003,7.19e-4 c 0.13217,-0.05961 0.27899,-0.09349 0.43447,-0.09349 h 1.79587 l 3.27286,-2.15931 z" />
      <path
         id="path13866"
         style="fill:none;stroke:#53676c;stroke-width:1;stroke-linecap:round;stroke-linejoin:round;stroke-miterlimit:4;stroke-dasharray:none"
         d="m 155.68873,93.511785 c -0.15547,0 -0.30229,0.03387 -0.43447,0.09349 l -0.003,-7.2e-4 -0.0172,0.01018 c -0.0554,0.02639 -0.10782,0.05719 -0.15711,0.09243 l -3.49046,2.056687 0.003,7.19e-4 c 0.13217,-0.05961 0.27899,-0.09349 0.43447,-0.09349 h 4.85221 l 3.66474,-2.15931 z" />
    </g>
    <ellipse
       style="fill:#374548;stroke:none;stroke-width:0.999999;stroke-linecap:round;stroke-linejoin:round;stroke-miterlimit:4;stroke-dasharray:none"
       id="path14656"
       cx="123.23571"
       cy="100.11578"
       rx="0.6267857"
       ry="1.2776786" />
    <path
       id="path15002"
       style="fill:#2ca089;stroke:none;stroke-width:1;stroke-linecap:round;stroke-linejoin:round;stroke-miterlimit:4;stroke-dasharray:none"
       d="m 106.17994,106.87027 -0.36793,0.36793 h 0.73587 z m -0.6904,0.69039 -0.73587,0.73587 h 2.85254 l -0.73587,-0.73587 z m -1.05833,1.05834 -0.43305,0.43304 h 1.52497 l -0.0946,0.83199 h 1.50275 l -0.0946,-0.83199 h 1.52549 l -0.43305,-0.43304 z m 0.96015,1.5875 -0.11679,1.02732 h 1.81074 l -0.11679,-1.02732 z" />
    <path
       id="path16601"
       style="fill:#80ffb3;stroke:#d5ffe6;stroke-width:1;stroke-linecap:round;stroke-linejoin:round;stroke-miterlimit:4;stroke-dasharray:none;paint-order:stroke markers fill"
       d="m 188.3833,79.057861 v 1.463612 h -1.46362 v 1.386017 h 1.46362 v 1.463612 h 1.386 V 81.90749 h 1.46362 v -1.386017 h -1.46362 v -1.463612 z" />
    <path
       id="path16597"
       style="fill:#80ffb3;stroke:#d5ffe6;stroke-width:1;stroke-linecap:round;stroke-linejoin:round;stroke-miterlimit:4;stroke-dasharray:none;paint-order:stroke markers fill"
       d="m 200.16725,69.507447 v 1.463612 h -1.46362 v 1.386016 h 1.46362 v 1.463612 h 1.386 v -1.463612 h 1.46362 v -1.386016 h -1.46362 v -1.463612 z" />
    <path
       id="path16350"
       style="fill:#2affd5;stroke:#aaffee;stroke-width:1;stroke-linecap:round;stroke-linejoin:round;stroke-miterlimit:4;stroke-dasharray:none;paint-order:stroke markers fill"
       d="m 193.7158,64.160022 -1.78267,1.782679 h 3.5654 z m -3.34509,3.345049 -3.5654,3.565408 h 13.82097 l -3.5654,-3.565408 z m -5.12776,5.127826 -2.0982,2.098148 h 7.3887 l -0.45835,4.031124 h 7.28105 l -0.45835,-4.031124 h 7.39123 l -2.0982,-2.098148 z m 4.65205,7.69169 -0.56586,4.977528 h 8.77331 l -0.56586,-4.977528 z" />
    <path
       id="rect16446"
       style="fill:#80ffb3;stroke:#d5ffe6;stroke-width:1;stroke-linecap:round;stroke-linejoin:round;stroke-miterlimit:4;stroke-dasharray:none;paint-order:stroke markers fill"
       d="m 186.30377,66.11859 v 1.463612 h -1.46362 v 1.386016 h 1.46362 v 1.463612 h 1.386 v -1.463612 h 1.46362 v -1.386016 h -1.46362 V 66.11859 Z" />
    <path
       id="path16599"
       style="fill:#80ffb3;stroke:#d5ffe6;stroke-width:1;stroke-linecap:round;stroke-linejoin:round;stroke-miterlimit:4;stroke-dasharray:none;paint-order:stroke markers fill;fill-opacity:1;stroke-opacity:1"
       d="m 196.31629,73.974577 v 1.463612 h -1.46362 v 1.386016 h 1.46362 v 1.463612 h 1.386 v -1.463612 h 1.46362 v -1.386016 h -1.46362 v -1.463612 z" />
    <path
       id="path16603"
       style="fill:#80ffb3;stroke:#d5ffe6;stroke-width:1;stroke-linecap:round;stroke-linejoin:round;stroke-miterlimit:4;stroke-dasharray:none;paint-order:stroke markers fill"
       d="m 199.01196,79.28892 v 1.463612 h -1.46362 v 1.386016 h 1.46362 v 1.463612 h 1.386 v -1.463612 h 1.46362 v -1.386016 h -1.46362 V 79.28892 Z" />
    <path
       style="fill:#2affd5;fill-opacity:1;stroke:#aaffee;stroke-width:1;stroke-linecap:round;stroke-linejoin:round;stroke-miterlimit:4;stroke-dasharray:none;stroke-opacity:1;paint-order:stroke markers fill"
       d="m 170.66651,45.538392 0.34956,0.843751 c 2.89286,-5.207141 8.05178,-11.571426 13.40358,-11.185712 l -0.77143,-1.976787 c -4.67679,-5.544642 -10.94465,-4.96607 -10.94465,-4.96607 l -0.48215,-1.494644 -4.43571,3.278572 6.31607,2.266071 -0.77142,-1.591071 c 5.4,-0.530357 8.29286,2.86875 8.29286,2.86875 -6.14732,0.02411 -11.49911,12.005355 -11.49911,12.005355 z"
       id="path17949"
       sodipodi:nodetypes="cccccccccccc" />
    <path
       style="fill:#ffaacc;fill-opacity:1;stroke:#ff2a7f;stroke-width:0.5;stroke-linecap:round;stroke-linejoin:round;stroke-miterlimit:4;stroke-dasharray:none;stroke-opacity:1;paint-order:normal"
       d="m 162.96601,32.927797 c -3.06408,-1.582483 -2.6458,-6.295795 0.859,-5.714832 3.05599,0.506569 1.31883,3.947089 0.10231,5.277666 l 0.43702,0.174117 -1.25637,0.949602 z"
       id="path19851"
       sodipodi:nodetypes="cscccc" />
    <path
       style="fill:none;fill-opacity:1;stroke:#ff2a7f;stroke-width:0.2;stroke-linecap:round;stroke-linejoin:round;stroke-miterlimit:4;stroke-dasharray:none;stroke-opacity:1;paint-order:stroke markers fill"
       d="m 162.89525,32.773771 c 0.34159,-0.221405 0.71373,-0.384364 1.10285,-0.514826"
       id="path20420"
       sodipodi:nodetypes="cc" />
    <path
       style="fill:#ffd5e5;fill-opacity:1;stroke:none;stroke-width:0.2;stroke-linecap:round;stroke-linejoin:round;stroke-miterlimit:4;stroke-dasharray:none;stroke-opacity:1;paint-order:stroke markers fill"
       d="m 162.74611,27.530357 c -1.20536,0.458036 -1.18125,1.639287 -1.18125,1.639287 0.53036,0.144641 0.84375,0.433927 0.84375,0.433927 0.48214,-0.916071 1.30179,-1.374107 1.30179,-1.374107 -0.3375,-0.554464 -0.96429,-0.699107 -0.96429,-0.699107 z"
       id="path20771" />
    <path
       style="fill:none;fill-opacity:1;stroke:#f2f2f2;stroke-width:0.5;stroke-linecap:butt;stroke-linejoin:round;stroke-miterlimit:4;stroke-dasharray:none;stroke-opacity:1;paint-order:stroke markers fill"
       d="m 166.62857,28.253571 c 0.89196,-0.192858 1.73571,-0.24107 1.73571,-0.24107"
       id="path20970" />
    <path
       style="fill:none;fill-opacity:1;stroke:#f2f2f2;stroke-width:0.5;stroke-linecap:butt;stroke-linejoin:round;stroke-miterlimit:4;stroke-dasharray:none;stroke-opacity:1;paint-order:stroke markers fill"
       d="m 165.52017,31.559094 c 1.34752,-0.310567 2.62222,-0.388205 2.62222,-0.388205"
       id="path21314" />
  </g>
</svg>
