<?xml version="1.0" encoding="UTF-8" standalone="no"?>
<!-- Created with Inkscape (http://www.inkscape.org/) -->

<svg
   width="210mm"
   height="297mm"
   viewBox="0 0 210 297"
   version="1.1"
   id="svg5"
   sodipodi:docname="WallFactory-003.svg"
   inkscape:version="1.1 (c68e22c387, 2021-05-23)"
   xmlns:inkscape="http://www.inkscape.org/namespaces/inkscape"
   xmlns:sodipodi="http://sodipodi.sourceforge.net/DTD/sodipodi-0.dtd"
   xmlns:xlink="http://www.w3.org/1999/xlink"
   xmlns="http://www.w3.org/2000/svg"
   xmlns:svg="http://www.w3.org/2000/svg">
  <sodipodi:namedview
     id="namedview7"
     pagecolor="#ffffff"
     bordercolor="#666666"
     borderopacity="1.0"
     inkscape:pageshadow="2"
     inkscape:pageopacity="0.0"
     inkscape:pagecheckerboard="0"
     inkscape:document-units="mm"
     showgrid="false"
     inkscape:snap-smooth-nodes="true"
     inkscape:object-paths="true"
     inkscape:snap-global="false"
     inkscape:zoom="1.9401788"
     inkscape:cx="491.19184"
     inkscape:cy="393.52043"
     inkscape:window-width="1920"
     inkscape:window-height="951"
     inkscape:window-x="-8"
     inkscape:window-y="-8"
     inkscape:window-maximized="1"
     inkscape:current-layer="layer1"
     inkscape:snap-midpoints="true"
     inkscape:snap-object-midpoints="true"
     inkscape:object-nodes="true" />
  <defs
     id="defs2">
    <inkscape:path-effect
       effect="taper_stroke"
       id="path-effect2362"
       is_visible="true"
       lpeversion="1"
       stroke_width="1.9"
       attach_start="0.5"
       end_offset="0.5"
       start_smoothing="0.5"
       end_smoothing="0.5"
       jointype="extrapolated"
       start_shape="center"
       end_shape="center"
       miter_limit="100" />
    <linearGradient
       inkscape:collect="always"
       xlink:href="#linearGradient470802"
       id="linearGradient470804"
       x1="165.14934"
       y1="65.253326"
       x2="178.0318"
       y2="65.253326"
       gradientUnits="userSpaceOnUse"
       gradientTransform="matrix(1.4178476,0,0,1.4182289,-66.045683,-41.93751)" />
    <linearGradient
       inkscape:collect="always"
       id="linearGradient470802">
      <stop
         style="stop-color:#2a7fff;stop-opacity:1;"
         offset="0"
         id="stop470798" />
      <stop
         style="stop-color:#2a7fff;stop-opacity:0;"
         offset="1"
         id="stop470800" />
    </linearGradient>
    <linearGradient
       inkscape:collect="always"
       xlink:href="#linearGradient470802"
       id="linearGradient470812"
       x1="171.25"
       y1="70.585716"
       x2="187.64999"
       y2="70.585716"
       gradientUnits="userSpaceOnUse"
       gradientTransform="matrix(1.4178476,0,0,1.4182289,-66.045683,-41.93751)" />
    <linearGradient
       inkscape:collect="always"
       xlink:href="#linearGradient470802"
       id="linearGradient470820"
       x1="168.74284"
       y1="87.311386"
       x2="180.51427"
       y2="87.311386"
       gradientUnits="userSpaceOnUse"
       gradientTransform="matrix(1.4178476,0,0,1.4182289,-66.045683,-41.93751)" />
    <marker
       style="overflow:visible"
       id="Arrow1Send"
       refX="0"
       refY="0"
       orient="auto"
       inkscape:stockid="Arrow1Send"
       inkscape:isstock="true">
      <path
         transform="matrix(-0.2,0,0,-0.2,-1.2,0)"
         style="fill:context-stroke;fill-rule:evenodd;stroke:context-stroke;stroke-width:1pt"
         d="M 0,0 5,-5 -12.5,0 5,5 Z"
         id="path17495" />
    </marker>
    <marker
       style="overflow:visible"
       id="marker471070"
       refX="0"
       refY="0"
       orient="auto"
       inkscape:stockid="Arrow1Send"
       inkscape:isstock="true">
      <path
         transform="matrix(-0.2,0,0,-0.2,-1.2,0)"
         style="fill:context-stroke;fill-rule:evenodd;stroke:context-stroke;stroke-width:1pt"
         d="M 0,0 5,-5 -12.5,0 5,5 Z"
         id="path471068" />
    </marker>
    <marker
       style="overflow:visible"
       id="marker471074"
       refX="0"
       refY="0"
       orient="auto"
       inkscape:stockid="Arrow1Send"
       inkscape:isstock="true">
      <path
         transform="matrix(-0.2,0,0,-0.2,-1.2,0)"
         style="fill:context-stroke;fill-rule:evenodd;stroke:context-stroke;stroke-width:1pt"
         d="M 0,0 5,-5 -12.5,0 5,5 Z"
         id="path471072" />
    </marker>
    <marker
       style="overflow:visible"
       id="marker471078"
       refX="0"
       refY="0"
       orient="auto"
       inkscape:stockid="Arrow1Send"
       inkscape:isstock="true">
      <path
         transform="matrix(-0.2,0,0,-0.2,-1.2,0)"
         style="fill:context-stroke;fill-rule:evenodd;stroke:context-stroke;stroke-width:1pt"
         d="M 0,0 5,-5 -12.5,0 5,5 Z"
         id="path471076" />
    </marker>
    <linearGradient
       inkscape:collect="always"
       xlink:href="#linearGradient470802"
       id="linearGradient618958"
       gradientTransform="matrix(5.2040446,0,0,0.89291694,-172.70357,-153.61587)"
       x1="66.180667"
       y1="292.51375"
       x2="68.782689"
       y2="292.51375"
       gradientUnits="userSpaceOnUse" />
    <linearGradient
       inkscape:collect="always"
       xlink:href="#linearGradient470802"
       id="linearGradient618964"
       gradientUnits="userSpaceOnUse"
       gradientTransform="matrix(-5.2040446,0,0,0.89291694,496.02858,-153.61587)"
       x1="66.180667"
       y1="292.51375"
       x2="68.782689"
       y2="292.51375" />
    <linearGradient
       inkscape:collect="always"
       xlink:href="#linearGradient470802"
       id="linearGradient618969"
       gradientUnits="userSpaceOnUse"
       gradientTransform="matrix(-4.7495388,0,0,1.7858338,466.82601,-418.65654)"
       x1="66.180667"
       y1="292.51375"
       x2="68.782689"
       y2="292.51375" />
    <linearGradient
       inkscape:collect="always"
       xlink:href="#linearGradient470802"
       id="linearGradient618974"
       gradientUnits="userSpaceOnUse"
       gradientTransform="matrix(4.7495388,0,0,1.7858338,-144.36887,-418.65654)"
       x1="66.180667"
       y1="292.51375"
       x2="68.782689"
       y2="292.51375" />
    <linearGradient
       inkscape:collect="always"
       xlink:href="#linearGradient470802"
       id="linearGradient618979"
       gradientUnits="userSpaceOnUse"
       gradientTransform="matrix(5.9291546,0,0,2.2293712,-220.05974,-516.82445)"
       x1="66.180667"
       y1="292.51375"
       x2="68.782689"
       y2="292.51375" />
    <linearGradient
       inkscape:collect="always"
       xlink:href="#linearGradient470802"
       id="linearGradient618984"
       gradientUnits="userSpaceOnUse"
       gradientTransform="matrix(-5.9291546,0,0,2.2293712,542.51688,-516.82445)"
       x1="66.180667"
       y1="292.51375"
       x2="68.782689"
       y2="292.51375" />
  </defs>
  <g
     inkscape:label="Layer 1"
     inkscape:groupmode="layer"
     id="layer1">
    <path
       style="opacity:1;fill:none;fill-opacity:1;stroke:url(#linearGradient618964);stroke-width:0.5;stroke-linecap:round;stroke-linejoin:round;stroke-miterlimit:4;stroke-dasharray:0.5, 1;stroke-dashoffset:0;stroke-opacity:1"
       d="M 150.62144,108.73631 H 139.0804"
       id="path618962" />
    <path
       style="opacity:1;fill:none;fill-opacity:1;stroke:url(#linearGradient618969);stroke-width:0.5;stroke-linecap:round;stroke-linejoin:round;stroke-miterlimit:4;stroke-dasharray:0.5, 0.999998;stroke-dashoffset:0;stroke-opacity:1"
       d="M 151.58571,106.04782 H 141.05263"
       id="path618967" />
    <path
       style="opacity:1;fill:none;fill-opacity:1;stroke:url(#linearGradient618974);stroke-width:0.5;stroke-linecap:round;stroke-linejoin:round;stroke-miterlimit:4;stroke-dasharray:0.5, 0.999998;stroke-dashoffset:0;stroke-opacity:1"
       d="m 170.87143,106.04782 h 10.53308"
       id="path618972" />
    <path
       style="opacity:1;fill:none;fill-opacity:1;stroke:url(#linearGradient618979);stroke-width:0.5;stroke-linecap:round;stroke-linejoin:round;stroke-miterlimit:4;stroke-dasharray:0.5, 0.999996;stroke-dashoffset:0;stroke-opacity:1"
       d="m 173.475,138.19773 h 13.14912"
       id="path618977" />
    <path
       style="opacity:1;fill:none;fill-opacity:1;stroke:url(#linearGradient618984);stroke-width:0.5;stroke-linecap:round;stroke-linejoin:round;stroke-miterlimit:4;stroke-dasharray:0.5, 0.999996;stroke-dashoffset:0;stroke-opacity:1"
       d="M 148.98214,138.19773 H 135.83302"
       id="path618982" />
    <path
       style="opacity:1;fill:none;fill-opacity:1;stroke:url(#linearGradient618958);stroke-width:0.5;stroke-linecap:round;stroke-linejoin:round;stroke-miterlimit:4;stroke-dasharray:0.5, 1;stroke-dashoffset:0;stroke-opacity:1"
       d="m 172.70357,108.73631 h 11.54104"
       id="path613699" />
    <path
       id="path608787"
       style="opacity:0.5;fill:#2c2ca0;fill-opacity:1;stroke:#2d1650;stroke-width:1;stroke-linecap:round;stroke-linejoin:round;stroke-miterlimit:4;stroke-dasharray:none;stroke-dashoffset:0;stroke-opacity:1"
       d="m 144.85092,108.73631 -2.4924,29.46142 h 37.23929 l -1.17289,-29.46142 z m 0,0 h 33.62317 l -2.78969,-2.68849 h -29.36523 z" />
    <path
       id="path549712"
       style="fill:#808080;stroke:none;stroke-width:3.77953;stroke-linecap:round;stroke-linejoin:round;stroke-opacity:1;fill-opacity:1"
       d="M 295.62891 274.29688 A 106.7489 35.259286 0 0 0 194.51562 298.25391 L 194.51172 298.25391 L 194.42383 298.35352 A 106.7489 35.259286 0 0 0 192.12695 300.98242 L 172.2168 323.74805 A 128.59288 42.805266 0 0 0 171.28711 324.81055 L 171.10547 325.01758 L 171.14258 325.01758 A 128.59288 42.805266 0 0 0 167.03516 335.70312 L 167.03516 361.85156 A 128.59288 42.805266 0 0 0 214.82227 395.14453 L 214.82422 395.15039 L 267.95703 408.72852 L 268.05859 408.68359 A 128.59288 42.805265 0 0 0 348.76562 418.23633 A 128.59288 42.805265 0 0 0 477.35938 375.43164 L 477.35938 349.2832 A 128.59288 42.805265 0 0 0 473.27734 338.59766 L 473.28516 338.59766 L 473.20117 338.50195 A 128.59288 42.805265 0 0 0 471.16016 336.15625 L 451.79688 313.91211 L 451.79492 313.91211 A 106.7489 35.259286 0 0 0 384.32812 289.98047 A 106.7489 35.259286 0 0 0 295.62891 274.29688 z "
       transform="scale(0.26458333)" />
    <path
       style="opacity:1;fill:none;fill-opacity:1;stroke:#e6e6e6;stroke-width:0.5;stroke-linecap:round;stroke-linejoin:round;stroke-miterlimit:4;stroke-dasharray:none;stroke-dashoffset:0;stroke-opacity:1"
       d="m 86.252332,149.46411 7.757147,15.9532"
       id="path529079"
       sodipodi:nodetypes="cc" />
    <path
       style="opacity:1;fill:none;fill-opacity:1;stroke:#e6e6e6;stroke-width:0.5;stroke-linecap:round;stroke-linejoin:round;stroke-miterlimit:4;stroke-dasharray:none;stroke-dashoffset:0;stroke-opacity:1"
       d="m 86.252332,149.46411 -7.756525,15.9532"
       id="path529161"
       sodipodi:nodetypes="cc" />
    <path
       style="opacity:1;fill:none;fill-opacity:1;stroke:#e6e6e6;stroke-width:0.5;stroke-linecap:round;stroke-linejoin:round;stroke-miterlimit:4;stroke-dasharray:none;stroke-dashoffset:0;stroke-opacity:1"
       d="m 125.17958,133.32914 7.75715,15.9532"
       id="path529268"
       sodipodi:nodetypes="cc" />
    <path
       style="opacity:1;fill:none;fill-opacity:1;stroke:#e6e6e6;stroke-width:0.5;stroke-linecap:round;stroke-linejoin:round;stroke-miterlimit:4;stroke-dasharray:none;stroke-dashoffset:0;stroke-opacity:1"
       d="m 125.17958,133.32914 -7.75652,15.9532"
       id="path529270"
       sodipodi:nodetypes="cc" />
    <path
       id="path545593"
       style="fill:#b3b3b3;stroke:none;stroke-width:3.77953;stroke-linecap:round;stroke-linejoin:round;fill-opacity:1"
       d="M 295.62891 292.89844 A 128.59288 42.805266 0 0 0 231.34766 298.63086 L 194.51367 298.25586 L 172.2168 323.74805 A 128.59288 42.805266 0 0 0 171.28906 324.81055 L 171.10742 325.01758 L 171.14258 325.01758 A 128.59288 42.805266 0 0 0 167.03516 335.70508 A 128.59288 42.805266 0 0 0 213.64844 368.6543 L 213.66016 368.6875 L 215.37891 369.12695 A 128.59288 42.805266 0 0 0 219.40625 370.15625 L 268.47656 382.69531 A 128.59288 42.805266 0 0 0 272.55078 383.73633 L 274.2207 384.16406 L 274.25195 384.14258 A 128.59288 42.805266 0 0 0 348.76562 392.08984 A 128.59288 42.805266 0 0 0 477.35938 349.2832 A 128.59288 42.805266 0 0 0 473.27734 338.59766 L 473.28516 338.59766 L 473.20117 338.50195 A 128.59288 42.805266 0 0 0 471.16016 336.15625 L 451.79688 313.91211 L 419.7168 313.58594 A 128.59288 42.805266 0 0 0 408.25977 311.36133 L 398.66016 300.33398 L 366.58203 300.00781 A 128.59288 42.805266 0 0 0 295.62891 292.89844 z "
       transform="scale(0.26458333)" />
    <path
       id="path8609"
       style="font-variation-settings:normal;opacity:1;vector-effect:none;fill:#666666;fill-opacity:1;stroke:none;stroke-width:1;stroke-linecap:butt;stroke-linejoin:miter;stroke-miterlimit:4;stroke-dasharray:none;stroke-dashoffset:0;stroke-opacity:1;-inkscape-stroke:none;stop-color:#000000;stop-opacity:1"
       d="m 107.8102,89.267632 -4.72461,4.847445 0.9656,8.925383 v 6.91546 a 34.023533,11.32556 0 0 0 22.25,-10.623168 v -6.918167 h -7.08895 A 34.023533,11.32556 0 0 0 107.8102,89.267632 Z" />
    <path
       id="path3977"
       style="font-variation-settings:normal;opacity:1;vector-effect:none;fill:#999999;fill-opacity:1;stroke:none;stroke-width:1;stroke-linecap:butt;stroke-linejoin:miter;stroke-miterlimit:4;stroke-dasharray:none;stroke-dashoffset:0;stroke-opacity:1;-inkscape-stroke:none;stop-color:#000000;stop-opacity:1"
       d="m 52.320828,88.199953 a 34.023533,11.32556 0 0 0 -0.743289,0.285779 h -7.088942 v 6.918167 a 34.023533,11.32556 0 0 0 9.558011,7.843741 v -6.918163 z" />
    <path
       id="path3767"
       style="font-variation-settings:normal;opacity:1;vector-effect:none;fill:#b3b3b3;fill-opacity:1;stroke:none;stroke-width:1;stroke-linecap:butt;stroke-linejoin:miter;stroke-miterlimit:4;stroke-dasharray:none;stroke-dashoffset:0;stroke-opacity:1;-inkscape-stroke:none;stop-color:#000000;stop-opacity:1"
       d="m 44.488597,88.485732 v 6.918167 a 34.023533,11.32556 0 0 0 1.346025,3.092228 v -6.918165 l 0.222987,-3.09223 z" />
    <path
       id="path8691"
       style="font-variation-settings:normal;opacity:1;vector-effect:none;fill:#999999;fill-opacity:1;stroke:none;stroke-width:1;stroke-linecap:butt;stroke-linejoin:miter;stroke-miterlimit:4;stroke-dasharray:none;stroke-dashoffset:0;stroke-opacity:1;-inkscape-stroke:none;stop-color:#000000;stop-opacity:1"
       d="m 113.9207,82.998718 -10.83511,11.116359 0.9656,8.922683 a 34.023533,11.32556 0 0 0 22.25,-10.623175 34.023533,11.32556 0 0 0 -1.0798,-2.827396 h 0.002 l -0.0223,-0.02501 a 34.023533,11.32556 0 0 0 -0.5399,-0.620878 l -5.12328,-5.885174 z" />
    <path
       id="path3408"
       style="font-variation-settings:normal;opacity:1;vector-effect:none;fill:#cccccc;fill-opacity:1;stroke:none;stroke-width:1;stroke-linecap:butt;stroke-linejoin:miter;stroke-miterlimit:4;stroke-dasharray:none;stroke-dashoffset:0;stroke-opacity:1;-inkscape-stroke:none;stop-color:#000000;stop-opacity:1"
       d="m 63.557319,78.328729 a 34.023533,11.32556 0 0 0 -2.052826,0.347935 l -9.745861,-0.09931 -5.899006,6.745213 a 34.023533,11.32556 0 0 0 -0.245962,0.28105 l -0.04797,0.05472 h 0.0094 a 34.023533,11.32556 0 0 0 -1.08655,2.827396 34.023533,11.32556 0 0 0 9.558011,7.843744 z" />
    <path
       id="path3262"
       style="fill:#f9f9f9;stroke:none;stroke-width:1;stroke-linecap:round;stroke-linejoin:round"
       d="m 51.758632,78.57735 -5.899006,6.745213 a 34.023533,11.32556 0 0 0 -0.245962,0.28105 l -0.04797,0.05472 h 0.0094 a 34.023533,11.32556 0 0 0 -1.08655,2.827396 34.023533,11.32556 0 0 0 1.346026,3.09223 l 9.86141,-12.343926 -0.474355,-0.621555 z" />
    <path
       id="path3355"
       style="fill:none;stroke:#ffb380;stroke-width:3.77953;stroke-linecap:round;stroke-linejoin:round"
       d="M 295.62891 292.89844 A 128.59288 42.805266 0 0 0 231.34766 298.63086 L 194.51367 298.25586 L 172.2168 323.74805 A 128.59288 42.805266 0 0 0 171.28906 324.81055 L 171.10742 325.01758 L 171.14258 325.01758 A 128.59288 42.805266 0 0 0 167.03516 335.70508 A 128.59288 42.805266 0 0 0 213.64844 368.6543 L 213.66016 368.6875 L 215.37891 369.12695 A 128.59288 42.805266 0 0 0 219.40625 370.15625 L 268.47656 382.69531 A 128.59288 42.805266 0 0 0 272.55078 383.73633 L 274.2207 384.16406 L 274.25195 384.14258 A 128.59288 42.805266 0 0 0 348.76562 392.08984 A 128.59288 42.805266 0 0 0 477.35938 349.2832 A 128.59288 42.805266 0 0 0 473.27734 338.59766 L 473.28516 338.59766 L 473.20117 338.50195 A 128.59288 42.805266 0 0 0 471.16016 336.15625 L 451.79688 313.91211 L 419.7168 313.58594 A 128.59288 42.805266 0 0 0 408.25977 311.36133 L 398.66016 300.33398 L 366.58203 300.00781 A 128.59288 42.805266 0 0 0 295.62891 292.89844 z "
       transform="scale(0.26458333)" />
    <path
       id="path544574"
       style="fill:#f2f2f2;stroke:none;stroke-width:3.77953;stroke-linecap:round;stroke-linejoin:round;fill-opacity:1"
       d="M 295.62891 274.29883 A 106.7489 35.259286 0 0 0 188.87891 309.55664 A 106.7489 35.259286 0 0 0 225.09375 336.01953 L 225.08984 336.02148 L 225.14258 336.03516 A 106.7489 35.259286 0 0 0 235.42188 338.66211 L 278.26758 349.61133 A 106.7489 35.259286 0 0 0 288.49219 352.22461 L 288.88281 352.32422 L 288.89648 352.32031 A 106.7489 35.259286 0 0 0 348.76562 358.39648 A 106.7489 35.259286 0 0 0 455.51367 323.13672 A 106.7489 35.259286 0 0 0 384.19727 289.87695 A 106.7489 35.259286 0 0 0 295.62891 274.29883 z "
       transform="scale(0.26458333)" />
    <path
       style="opacity:1;fill:#cccccc;fill-opacity:1;stroke:none;stroke-width:1;stroke-linecap:round;stroke-linejoin:round;stroke-miterlimit:4;stroke-dasharray:none;stroke-dashoffset:0;stroke-opacity:1"
       d="m 63.646409,89.95131 4.33433,-0.901314 0.409112,-2.113745 3.886562,0.06819 0.613667,-1.909189 6.711294,1.337194 4.266538,1.52659 -4.636598,0.818224 -0.545483,2.045557 -4.363858,-0.27274 0.01495,2.150393 z"
       id="path582574" />
    <path
       style="opacity:1;fill:#b3b3b3;fill-opacity:1;stroke:none;stroke-width:1;stroke-linecap:round;stroke-linejoin:round;stroke-miterlimit:4;stroke-dasharray:none;stroke-dashoffset:0;stroke-opacity:1"
       d="m 66.178173,90.598301 2.586698,-1.071007 1.022779,-1.363707 3.238802,-0.545481 1.43189,-2.079652 6.545789,1.534168 -3.136524,1.227336 -0.681852,0.988687 -3.409265,0.579575 -2.08675,2.138561 z"
       id="path595416" />
    <path
       style="opacity:1;fill:none;fill-opacity:1;stroke:#999999;stroke-width:1;stroke-linecap:round;stroke-linejoin:round;stroke-miterlimit:4;stroke-dasharray:none;stroke-dashoffset:0;stroke-opacity:1"
       d="M 67.956834,91.052839 101.65219,76.696609"
       id="path555064" />
    <path
       id="path1503"
       style="fill:#ffffff;stroke:none;stroke-width:3.77953;stroke-linecap:round;stroke-linejoin:round"
       d="M 295.62695 274.29688 A 106.7489 35.259286 0 0 0 188.87891 309.55664 A 106.7489 35.259286 0 0 0 230.08984 337.37891 A 100.31537 32.876903 0 0 1 206.50977 316.22852 A 100.31537 32.876903 0 0 1 306.82617 283.34961 A 100.31537 32.876903 0 0 1 401.66797 305.51758 A 100.31537 32.876903 0 0 0 401.66992 305.51953 A 106.7489 35.259286 0 0 0 295.62695 274.29688 z M 401.66992 305.51953 A 106.7489 35.259288 0 0 1 401.72266 305.66406 A 106.7489 35.259288 0 0 1 401.95898 306.43945 A 106.7489 35.259286 0 0 0 401.66992 305.51953 z M 401.95898 306.44141 A 106.7489 35.259288 0 0 1 402.14062 307.2168 A 106.7489 35.259288 0 0 1 402.26953 307.99609 A 106.7489 35.259288 0 0 1 402.34961 308.77734 A 106.7489 35.259288 0 0 1 402.375 309.55664 A 106.7489 35.259288 0 0 1 402.375 309.57617 A 106.7489 35.259286 0 0 0 402.37695 309.55664 A 106.7489 35.259286 0 0 0 401.95898 306.44141 z M 400.3457 316.39844 A 106.7489 35.259288 0 0 1 400.32422 316.43555 A 106.7489 35.259288 0 0 1 400.30078 316.47266 A 106.7489 35.259286 0 0 0 400.3457 316.39844 z M 398.76562 318.64453 A 106.7489 35.259288 0 0 1 398.73828 318.68164 A 106.7489 35.259288 0 0 1 398.70898 318.7168 A 106.7489 35.259286 0 0 0 398.76562 318.64453 z M 254.50586 342.0918 A 106.7489 35.259286 0 0 0 255.06445 342.16797 A 106.7489 35.259288 0 0 1 254.77734 342.13086 A 106.7489 35.259288 0 0 1 254.50586 342.0918 z M 336.75 342.0918 A 106.7489 35.259288 0 0 1 336.47852 342.13086 A 106.7489 35.259288 0 0 1 336.1875 342.16797 A 106.7489 35.259286 0 0 0 336.75 342.0918 z "
       transform="scale(0.26458333)" />
    <path
       id="path7717"
       style="fill:#666666;stroke:none;stroke-width:1;stroke-linecap:round;stroke-linejoin:round"
       inkscape:transform-center-x="0.20277074"
       inkscape:transform-center-y="0.055365081"
       d="m 109.01965,86.940372 -8.33079,0.109558 2.53062,1.756319 -6.700626,-1.098702 -3.173276,1.704663 -1.935156,-1.792863 -7.392359,0.855374 3.735796,-1.648125 -8.152485,-0.394153 7.658722,-0.73221 -5.097963,-1.459251 7.998047,0.526313 0.34195,-1.841548 4.595002,1.538569 5.621858,-1.362166 -0.958106,1.830911 8.271246,-0.245411 -6.06289,1.266549 z" />
    <path
       id="ellipse3029"
       style="fill:none;stroke:#ffb380;stroke-width:3.77953;stroke-linecap:round;stroke-linejoin:round"
       d="M 295.62891 274.29883 A 106.7489 35.259286 0 0 0 188.87891 309.55664 A 106.7489 35.259286 0 0 0 225.09375 336.01953 L 225.08984 336.02148 L 225.14258 336.03516 A 106.7489 35.259286 0 0 0 235.42188 338.66211 L 278.26758 349.61133 A 106.7489 35.259286 0 0 0 288.49219 352.22461 L 288.88281 352.32422 L 288.89648 352.32031 A 106.7489 35.259286 0 0 0 348.76562 358.39648 A 106.7489 35.259286 0 0 0 455.51367 323.13672 A 106.7489 35.259286 0 0 0 384.19727 289.87695 A 106.7489 35.259286 0 0 0 295.62891 274.29883 z "
       transform="scale(0.26458333)" />
    <path
       id="path434166"
       style="fill:none;stroke:#2d1650;stroke-width:3.77953;stroke-linecap:round;stroke-linejoin:round;stroke-opacity:1"
       d="M 295.62891 274.29688 A 106.7489 35.259286 0 0 0 194.51562 298.25391 L 194.51172 298.25391 L 194.42383 298.35352 A 106.7489 35.259286 0 0 0 192.12695 300.98242 L 172.2168 323.74805 A 128.59288 42.805266 0 0 0 171.28711 324.81055 L 171.10547 325.01758 L 171.14258 325.01758 A 128.59288 42.805266 0 0 0 167.03516 335.70312 L 167.03516 361.85156 A 128.59288 42.805266 0 0 0 214.82227 395.14453 L 214.82422 395.15039 L 267.95703 408.72852 L 268.05859 408.68359 A 128.59288 42.805265 0 0 0 348.76562 418.23633 A 128.59288 42.805265 0 0 0 477.35938 375.43164 L 477.35938 349.2832 A 128.59288 42.805265 0 0 0 473.27734 338.59766 L 473.28516 338.59766 L 473.20117 338.50195 A 128.59288 42.805265 0 0 0 471.16016 336.15625 L 451.79688 313.91211 L 451.79492 313.91211 A 106.7489 35.259286 0 0 0 384.32812 289.98047 A 106.7489 35.259286 0 0 0 295.62891 274.29688 z "
       transform="scale(0.26458333)" />
    <path
       style="font-variation-settings:normal;opacity:1;vector-effect:none;fill:none;fill-opacity:1;stroke:#000000;stroke-width:1;stroke-linecap:butt;stroke-linejoin:round;stroke-miterlimit:4;stroke-dasharray:none;stroke-dashoffset:0;stroke-opacity:1;-inkscape-stroke:none;stop-color:#000000;stop-opacity:1"
       d="m 104.46257,44.358696 9.58278,-3.908103"
       id="path1313" />
    <path
       style="font-variation-settings:normal;opacity:1;vector-effect:none;fill:#d7e3f4;fill-opacity:1;stroke:none;stroke-width:1;stroke-linecap:butt;stroke-linejoin:miter;stroke-miterlimit:4;stroke-dasharray:none;stroke-dashoffset:0;stroke-opacity:1;-inkscape-stroke:none;stop-color:#000000;stop-opacity:1"
       d="m 59.63796,45.115187 7.757808,-3.691838 46.649582,-0.972756 -9.58278,3.908103 z"
       id="path6247"
       sodipodi:nodetypes="ccccc" />
    <path
       style="font-variation-settings:normal;opacity:1;vector-effect:none;fill:none;fill-opacity:1;stroke:#2d1650;stroke-width:1;stroke-linecap:butt;stroke-linejoin:round;stroke-miterlimit:4;stroke-dasharray:none;stroke-dashoffset:0;stroke-opacity:1;-inkscape-stroke:none;stop-color:#000000;stop-opacity:1"
       d="m 59.63796,45.115187 7.757808,-3.691838 46.649582,-0.972756 -9.58278,3.908103 z"
       id="path7565"
       sodipodi:nodetypes="ccccc" />
    <path
       style="opacity:1;fill:#2c2ca0;stroke:none;stroke-width:1;stroke-linejoin:round;stroke-opacity:1"
       d="m 111.52357,85.708942 2.16213,-1.262867 2.84974,-45.203996 -32.240542,1.137484 -2.023846,1.079246 31.774238,-1.007997 z"
       id="path427991" />
    <path
       id="path433148"
       style="opacity:1;fill:#8787de;stroke:none;stroke-width:1;stroke-linejoin:round;stroke-opacity:1"
       d="m 116.53553,39.24205 -48.360684,1.706139 -0.779079,0.47516 46.649473,-0.972587 -0.29455,5.282364 c 0.80371,-2.123237 1.70327,-3.5882 2.64738,-4.311364 z"
       sodipodi:nodetypes="ccccccc" />
    <path
       style="opacity:1;fill:#2c2ca0;stroke:#2d1650;stroke-width:1;stroke-linejoin:round;stroke-opacity:1"
       d="m 114.04535,40.450593 2.49009,-1.208514"
       id="path432844" />
    <path
       style="opacity:1;fill:none;stroke:#2d1650;stroke-width:1;stroke-linejoin:round;stroke-opacity:1"
       d="m 111.52357,85.708942 2.16213,-1.262867 2.84974,-45.203996 -48.360594,1.706109 -0.779078,0.475161 46.649522,-0.972537 z"
       id="path433110"
       sodipodi:nodetypes="ccccccc" />
    <path
       style="fill:none;fill-opacity:1;stroke:url(#linearGradient470804);stroke-width:0.5;stroke-linecap:round;stroke-linejoin:round;stroke-miterlimit:4;stroke-dasharray:0.5, 1;stroke-dashoffset:0;stroke-opacity:1"
       d="m 168.39448,50.606644 h 17.98179"
       id="path469218" />
    <path
       style="fill:none;fill-opacity:1;stroke:url(#linearGradient470812);stroke-width:0.5;stroke-linecap:round;stroke-linejoin:round;stroke-miterlimit:4;stroke-dasharray:0.5, 1;stroke-dashoffset:0;stroke-opacity:1"
       d="m 177.04428,58.169188 h 22.96914"
       id="path469220" />
    <path
       style="fill:none;fill-opacity:1;stroke:url(#linearGradient470820);stroke-width:0.5;stroke-linecap:round;stroke-linejoin:round;stroke-miterlimit:4;stroke-dasharray:0.5, 1;stroke-dashoffset:0;stroke-opacity:1"
       d="m 173.48953,81.691528 16.40651,0.410269"
       id="path469222" />
    <path
       style="fill:none;fill-opacity:1;stroke:#e6e6e6;stroke-width:1;stroke-linecap:round;stroke-linejoin:round;stroke-miterlimit:4;stroke-dasharray:none;stroke-opacity:1;marker-end:url(#Arrow1Send)"
       d="m 160.108,70.550468 h 10.65794"
       id="path468951" />
    <path
       id="path464845"
       style="opacity:0.5;fill:#2c2ca0;fill-opacity:1;stroke:#2d1650;stroke-width:1;stroke-linecap:round;stroke-linejoin:round;stroke-opacity:1"
       d="m 176.22395,81.759901 -2.73442,-0.06837 3.55475,-23.52234 h 3.82819 z m -4.83251,-31.153257 h -2.99696 l 8.6498,7.562544 h 3.82819 z" />
    <path
       style="fill:#214478;fill-opacity:1;stroke:#2d1650;stroke-width:1;stroke-linejoin:round;stroke-opacity:1"
       d="m 169.38791,58.169188 -1.36722,23.385581 5.46884,0.136759 3.55475,-23.52234 z"
       id="path447781" />
    <path
       style="fill:#2c5aa0;fill-opacity:1;stroke:#2d1650;stroke-width:1;stroke-linejoin:round;stroke-opacity:1"
       d="m 168.02069,81.554766 -6.00685,-10.930734 0.3867,-20.017388 6.98737,7.562544 z"
       id="path451328" />
    <path
       style="fill:#afc6e9;fill-opacity:1;stroke:#2d1650;stroke-width:1;stroke-linejoin:round;stroke-opacity:1"
       d="m 177.04428,58.169188 -8.6498,-7.562544 h -5.99394 l 6.98737,7.562544 z"
       id="path451330" />
    <path
       id="path451412"
       style="fill:#ff9955;fill-opacity:1;stroke:#a05a2c;stroke-width:1;stroke-linejoin:round;stroke-opacity:1"
       d="m 164.27424,70.066563 c 0.65354,1.188321 1.30707,2.376642 1.96061,3.564962 0.28431,-4.877008 0.56862,-9.754017 0.85293,-14.631025 -0.8483,-0.918709 -1.69662,-1.837419 -2.54493,-2.756128 -0.0896,4.607397 -0.17907,9.214793 -0.26861,13.822191 z" />
    <path
       style="fill:none;fill-opacity:1;stroke:#e6e6e6;stroke-width:1;stroke-linecap:round;stroke-linejoin:round;stroke-miterlimit:4;stroke-dasharray:none;stroke-opacity:1;marker-end:url(#Arrow1Send)"
       d="M 160.68805,47.802274 H 171.346"
       id="path468617" />
    <path
       style="fill:none;fill-opacity:1;stroke:#e6e6e6;stroke-width:1;stroke-linecap:round;stroke-linejoin:round;stroke-miterlimit:4;stroke-dasharray:none;stroke-opacity:1;marker-end:url(#Arrow1Send)"
       d="m 168.97097,56.726354 h 13.61399"
       id="path468718" />
    <path
       style="fill:none;fill-opacity:1;stroke:#e6e6e6;stroke-width:1;stroke-linecap:round;stroke-linejoin:round;stroke-miterlimit:4;stroke-dasharray:none;stroke-opacity:1;marker-end:url(#Arrow1Send)"
       d="m 167.35026,84.322198 9.72427,0.242068"
       id="path468720" />
    <path
       style="opacity:1;fill:#5f8dd3;fill-opacity:1;stroke:none;stroke-width:1;stroke-linecap:round;stroke-linejoin:round;stroke-miterlimit:4;stroke-dasharray:none;stroke-dashoffset:0;stroke-opacity:1"
       d="M 59.63796,45.115187 57.605316,81.07999 99.782104,91.858684 104.46257,44.358695 Z"
       id="path478037"
       sodipodi:nodetypes="ccccc" />
    <path
       id="path556968"
       style="opacity:1;fill:#2c5aa0;fill-opacity:1;stroke:none;stroke-width:1;stroke-linecap:round;stroke-linejoin:round;stroke-miterlimit:4;stroke-dasharray:none;stroke-dashoffset:0;stroke-opacity:1"
       d="M 62.120834,47.714844 C 61.548568,57.851562 60.976303,67.988281 60.404037,78.125 c 12.016276,3.073568 24.032552,6.147135 36.048827,9.220703 1.32162,-13.427083 2.64323,-26.854167 3.964836,-40.28125 -12.765616,0.216797 -25.531241,0.433594 -38.296866,0.650391 z" />
    <path
       style="opacity:1;fill:#214478;fill-opacity:1;stroke:none;stroke-width:1;stroke-linecap:round;stroke-linejoin:round;stroke-miterlimit:4;stroke-dasharray:none;stroke-dashoffset:0;stroke-opacity:1"
       d="m 57.605316,81.07999 2.798721,-2.95499 36.048827,9.220702 3.32924,4.512982 z"
       id="path511971"
       sodipodi:nodetypes="ccccc" />
    <path
       style="opacity:1;fill:#afc6e9;fill-opacity:1;stroke:none;stroke-width:1;stroke-linecap:round;stroke-linejoin:round;stroke-miterlimit:4;stroke-dasharray:none;stroke-dashoffset:0;stroke-opacity:1"
       d="m 59.63796,45.115187 2.482874,2.599657 38.296866,-0.650391 4.04487,-2.705758 z"
       id="path512086"
       sodipodi:nodetypes="ccccc" />
    <path
       style="opacity:1;fill:none;fill-opacity:1;stroke:#2d1650;stroke-width:1;stroke-linecap:round;stroke-linejoin:round;stroke-miterlimit:4;stroke-dasharray:none;stroke-dashoffset:0;stroke-opacity:1"
       d="M 59.63796,45.115187 57.605316,81.07999 99.782104,91.858684 104.46257,44.358695 Z"
       id="path471789"
       sodipodi:nodetypes="ccccc" />
    <path
       id="path558044"
       style="opacity:1;fill:#ffb380;fill-opacity:1;stroke:none;stroke-width:1;stroke-linecap:round;stroke-linejoin:round;stroke-miterlimit:4;stroke-dasharray:none;stroke-dashoffset:0;stroke-opacity:1"
       d="m 64.128517,49.800651 c -0.502605,8.902344 -1.005209,17.804688 -1.507813,26.707032 10.654948,2.727213 21.309896,5.454427 31.964844,8.18164 1.16276,-11.822916 2.325516,-23.645833 3.488276,-35.46875 -11.315099,0.19336 -22.630203,0.386719 -33.945307,0.580078 z" />
    <path
       style="opacity:1;fill:#214478;fill-opacity:1;stroke:none;stroke-width:1;stroke-linecap:round;stroke-linejoin:round;stroke-miterlimit:4;stroke-dasharray:none;stroke-dashoffset:0;stroke-opacity:1"
       d="m 99.782104,91.858684 11.741466,-6.149742 2.52172,-45.25813 -9.58271,3.907883 z"
       id="path488706" />
    <path
       id="path508335"
       style="opacity:1;fill:#2c5aa0;fill-opacity:1;stroke:none;stroke-width:1;stroke-linecap:round;stroke-linejoin:round;stroke-miterlimit:4;stroke-dasharray:none;stroke-dashoffset:0;stroke-opacity:1"
       d="m 109.48169,42.311629 -5.01933,2.046904 -4.680336,47.499942 3.524336,-1.845882 a 11.667855,42.958927 0 0 0 6.45077,-38.416777 11.667855,42.958927 0 0 0 -0.27544,-9.284187 z" />
    <path
       style="opacity:1;fill:none;fill-opacity:1;stroke:#2d1650;stroke-width:1;stroke-linecap:round;stroke-linejoin:round;stroke-miterlimit:4;stroke-dasharray:none;stroke-dashoffset:0;stroke-opacity:1"
       d="m 99.782106,91.858684 11.741464,-6.149742 2.52172,-45.25813 -9.58271,3.907883 z"
       id="path477697" />
    <path
       id="path513477"
       style="opacity:1;fill:#216778;fill-opacity:1;stroke:none;stroke-width:1;stroke-linecap:round;stroke-linejoin:round;stroke-miterlimit:4;stroke-dasharray:none;stroke-dashoffset:0;stroke-opacity:1"
       d="m 108.65747,82.607877 a 3.000153,6.6480665 0 0 0 -2.99982,6.648172 3.000153,6.6480665 0 0 0 0.0258,0.8723 l 5.80946,-3.042709 a 3.000153,6.6480665 0 0 0 -2.83548,-4.477763 z" />
    <path
       style="opacity:1;fill:#ffccaa;fill-opacity:1;stroke:none;stroke-width:1;stroke-linecap:round;stroke-linejoin:round;stroke-miterlimit:4;stroke-dasharray:none;stroke-dashoffset:0;stroke-opacity:1"
       d="m 76.738022,80.121093 3.920906,-28.67764 17.415026,-2.222751 -19.10156,0.328125 z"
       id="path520236" />
    <path
       style="opacity:1;fill:#ff9955;fill-opacity:1;stroke:none;stroke-width:1;stroke-linecap:round;stroke-linejoin:round;stroke-miterlimit:4;stroke-dasharray:none;stroke-dashoffset:0;stroke-opacity:1"
       d="m 62.620704,76.507683 14.117318,3.61341 2.234372,-30.572266 -3.818263,27.990552 z"
       id="path562311"
       sodipodi:nodetypes="ccccc" />
    <path
       style="opacity:1;fill:#ff9955;fill-opacity:1;stroke:none;stroke-width:1;stroke-linecap:round;stroke-linejoin:round;stroke-miterlimit:4;stroke-dasharray:none;stroke-dashoffset:0;stroke-opacity:1"
       d="m 76.738022,80.121093 17.847654,4.568359 3.488278,-35.46875 -5.072169,32.887036 z"
       id="path521716" />
    <path
       style="opacity:1;fill:#ffccaa;fill-opacity:1;stroke:none;stroke-width:1;stroke-linecap:round;stroke-linejoin:round;stroke-miterlimit:4;stroke-dasharray:none;stroke-dashoffset:0;stroke-opacity:1"
       d="m 62.620704,76.507683 3.462733,-25.06423 12.888957,-1.894626 H 64.396903 Z"
       id="path562134"
       sodipodi:nodetypes="ccccc" />
    <path
       style="opacity:1;fill:#ff7f2a;fill-opacity:1;stroke:#c87137;stroke-width:1;stroke-linecap:round;stroke-linejoin:round;stroke-miterlimit:4;stroke-dasharray:none;stroke-dashoffset:0;stroke-opacity:1"
       d="M 78.972394,49.548827 76.738022,80.121093"
       id="path562483" />
    <path
       id="path491185"
       style="opacity:1;fill:none;fill-opacity:1;stroke:#a05a2c;stroke-width:1;stroke-linecap:round;stroke-linejoin:round;stroke-miterlimit:4;stroke-dasharray:none;stroke-dashoffset:0;stroke-opacity:1"
       d="m 64.128517,49.800651 -1.507813,26.707032 31.964974,8.18177 3.488276,-35.46875 z"
       sodipodi:nodetypes="ccccc" />
    <path
       id="path518666"
       style="opacity:1;fill:#2c89a0;fill-opacity:1;stroke:none;stroke-width:1;stroke-linecap:round;stroke-linejoin:round;stroke-miterlimit:4;stroke-dasharray:none;stroke-dashoffset:0;stroke-opacity:1"
       d="m 107.06996,82.07871 a 3.000153,6.6480665 0 0 0 -2.99982,6.648172 3.000153,6.6480665 0 0 0 0.0258,0.8723 l 1.5875,0.529166 a 3.000153,6.6480665 0 0 1 -0.0258,-0.872299 3.000153,6.6480665 0 0 1 2.99982,-6.648172 3.000153,6.6480665 0 0 1 0.41547,0.06666 l 0.001,-0.0021 -1.66192,-0.550354 -0.002,0.0031 a 3.000153,6.6480665 0 0 0 -0.34054,-0.04651 z" />
    <path
       id="path516717"
       style="opacity:1;fill:none;fill-opacity:1;stroke:#2d1650;stroke-width:1;stroke-linecap:round;stroke-linejoin:round;stroke-miterlimit:4;stroke-dasharray:none;stroke-dashoffset:0;stroke-opacity:1"
       d="m 107.06996,82.07871 a 3.000153,6.6480665 0 0 0 -2.99982,6.648172 3.000153,6.6480665 0 0 0 0.0258,0.8723 l 1.5875,0.529166 a 3.000153,6.6480665 0 0 1 -0.0258,-0.872299 3.000153,6.6480665 0 0 1 2.99982,-6.648172 3.000153,6.6480665 0 0 1 0.41547,0.06666 l 0.001,-0.0021 -1.66192,-0.550354 -0.002,0.0031 a 3.000153,6.6480665 0 0 0 -0.34054,-0.04651 z" />
    <path
       id="path518155"
       style="opacity:1;fill:none;fill-opacity:1;stroke:#2d1650;stroke-width:1;stroke-linecap:round;stroke-linejoin:round;stroke-miterlimit:4;stroke-dasharray:none;stroke-dashoffset:0;stroke-opacity:1"
       d="m 108.65747,82.607877 a 3.000153,6.6480665 0 0 0 -2.99982,6.648172 3.000153,6.6480665 0 0 0 0.0258,0.8723 l 5.80946,-3.042709 a 3.000153,6.6480665 0 0 0 -2.83548,-4.477763 z" />
    <path
       style="color:#000000;fill:#decd87;stroke:#786721;stroke-linecap:round;stroke-linejoin:round;-inkscape-stroke:none;fill-opacity:1"
       d="m 105.14258,131.8293 a 1.5,1.5 0 0 0 -1.5,1.5 v 41.18359 a 1.5,1.5 0 0 0 1.5,1.5 1.5,1.5 0 0 0 1.5,-1.5 V 133.3293 a 1.5,1.5 0 0 0 -1.5,-1.5 z"
       id="path524180" />
    <path
       id="path524004"
       style="opacity:1;fill:#decd87;fill-opacity:1;stroke:#786721;stroke-width:1;stroke-linecap:round;stroke-linejoin:round;stroke-miterlimit:4;stroke-dasharray:none;stroke-dashoffset:0;stroke-opacity:1"
       d="m 105.1419,171.31048 a 9.9550523,5.3184528 0 0 0 -9.955462,5.31854 h 19.910412 a 9.9550523,5.3184528 0 0 0 -9.95495,-5.31854 z" />
    <path
       style="color:#000000;fill:#decd87;fill-opacity:1;stroke:#786721;stroke-linecap:round;stroke-linejoin:round;-inkscape-stroke:none"
       d="m 85.103628,146.69274 a 1.5,1.5 0 0 0 -0.811331,1.96004 1.5,1.5 0 0 0 1.960036,0.81133 l 38.927247,-16.13497 a 1.5,1.5 0 0 0 0.81133,-1.96004 1.5,1.5 0 0 0 -1.96004,-0.81133 z"
       id="path524182" />
    <circle
       style="opacity:1;fill:#decd87;fill-opacity:1;stroke:#786721;stroke-width:1;stroke-linecap:round;stroke-linejoin:round;stroke-miterlimit:4;stroke-dasharray:none;stroke-dashoffset:0;stroke-opacity:1"
       id="path526460"
       cx="105.1416"
       cy="140.01094"
       r="3.2728944" />
    <g
       id="path526575"
       style="fill:#ffeeaa;fill-opacity:1;stroke:#000000;stroke-opacity:1"
       transform="translate(0.06612,1.0227794)">
      <path
         style="color:#000000;fill:#ffeeaa;fill-opacity:1;stroke:#000000;stroke-width:3;stroke-linecap:round;stroke-linejoin:round;stroke-opacity:1;-inkscape-stroke:none"
         d="M 78.429371,165.89483 H 93.943053"
         id="path526659" />
      <path
         style="color:#000000;fill:#decd87;fill-opacity:1;stroke:#786721;stroke-linecap:round;stroke-linejoin:round;stroke-opacity:1;-inkscape-stroke:none"
         d="m 78.429687,164.39453 a 1.5,1.5 0 0 0 -1.5,1.5 1.5,1.5 0 0 0 1.5,1.5 h 15.513672 a 1.5,1.5 0 0 0 1.5,-1.5 1.5,1.5 0 0 0 -1.5,-1.5 z"
         id="path526661" />
    </g>
    <g
       id="g529266"
       style="fill:#ffeeaa;fill-opacity:1;stroke:#000000;stroke-opacity:1"
       transform="translate(38.993368,-15.112191)">
      <path
         style="color:#000000;fill:#ffeeaa;fill-opacity:1;stroke:#000000;stroke-width:3;stroke-linecap:round;stroke-linejoin:round;stroke-opacity:1;-inkscape-stroke:none"
         d="M 78.429371,165.89483 H 93.943053"
         id="path529262" />
      <path
         style="color:#000000;fill:#decd87;fill-opacity:1;stroke:#786721;stroke-linecap:round;stroke-linejoin:round;stroke-opacity:1;-inkscape-stroke:none"
         d="m 78.429687,164.39453 a 1.5,1.5 0 0 0 -1.5,1.5 1.5,1.5 0 0 0 1.5,1.5 h 15.513672 a 1.5,1.5 0 0 0 1.5,-1.5 1.5,1.5 0 0 0 -1.5,-1.5 z"
         id="path529264" />
    </g>
    <path
       style="opacity:1;fill:#2c5aa0;fill-opacity:1;stroke:#2d1650;stroke-width:1;stroke-linecap:round;stroke-linejoin:round;stroke-miterlimit:4;stroke-dasharray:none;stroke-dashoffset:0;stroke-opacity:1"
       d="m 81.070895,152.04623 -0.750038,12.83345 h 11.796056 l -0.750038,-12.83345 z"
       id="path529424" />
    <path
       id="path532474"
       style="opacity:1;fill:#ffb380;fill-opacity:1;stroke:#a05a2c;stroke-width:1;stroke-linecap:round;stroke-linejoin:round;stroke-miterlimit:4;stroke-dasharray:none;stroke-dashoffset:0;stroke-opacity:1"
       d="m 82.562501,162.76227 c 2.4375,0 4.875,0 7.3125,0 -0.166667,-2.86654 -0.333333,-5.73308 -0.5,-8.59961 -2.104167,0 -4.208333,0 -6.3125,0 -0.166667,2.86653 -0.333333,5.73307 -0.5,8.59961 z" />
    <path
       style="fill:#6c5353;stroke:#483737;stroke-width:0.999999;stroke-linecap:round;stroke-linejoin:round"
       d="m 121.89765,148.32789 v -0.4555 h 0.26422 0.26422 l 0.17211,-0.24894 c 0.48762,-0.70531 0.67358,-1.08668 0.67481,-1.38397 0.001,-0.33748 -0.23998,-0.49816 -0.81246,-0.54085 l -0.19679,-0.0147 v -0.18755 c 0,-0.18029 -0.002,-0.18757 -0.0412,-0.18786 -0.15204,-10e-4 -0.68217,-0.0465 -0.86493,-0.0741 -1.17473,-0.1772 -2.06411,-0.77946 -2.4244,-1.64174 -0.0409,-0.0978 -0.0743,-0.19025 -0.0743,-0.20543 0,-0.0225 0.31582,-0.0276 1.70241,-0.0276 h 1.70241 v -0.12712 -0.12712 h 3.88077 3.88076 v 0.47412 0.47411 l -0.27916,0.011 c -0.23617,0.009 -0.32076,0.0225 -0.54936,0.0863 -0.86833,0.24224 -1.43391,0.58905 -1.69369,1.03858 -0.23371,0.40442 -0.23767,0.86636 -0.012,1.40592 0.1405,0.33599 0.34706,0.66002 0.67602,1.06043 l 0.17785,0.21648 h 0.33679 0.33679 v 0.45551 0.4555 h -3.56042 -3.56042 z"
       id="path541322" />
    <path
       style="opacity:1;fill:#afc6e9;fill-opacity:1;stroke:#2d1650;stroke-width:1;stroke-linecap:round;stroke-linejoin:round;stroke-miterlimit:4;stroke-dasharray:none;stroke-dashoffset:0;stroke-opacity:1"
       d="m 150.62143,108.73631 h 22.08214 l -1.83214,-2.68849 h -19.28572 z"
       id="path599760" />
    <path
       style="opacity:1;fill:#2c5aa0;fill-opacity:1;stroke:#2d1650;stroke-width:1;stroke-linecap:round;stroke-linejoin:round;stroke-miterlimit:4;stroke-dasharray:none;stroke-dashoffset:0;stroke-opacity:1"
       d="m 150.62143,108.73631 -1.63929,29.46142 H 173.475 l -0.77143,-29.46142 z"
       id="path599762" />
    <path
       id="path601870"
       style="opacity:1;fill:#ffb380;fill-opacity:1;stroke:none;stroke-width:1;stroke-linecap:round;stroke-linejoin:round;stroke-miterlimit:4;stroke-dasharray:none;stroke-dashoffset:0;stroke-opacity:1"
       d="m 152.31256,134.50879 c 5.94401,0 11.88802,0 17.83203,0 -0.19336,-7.36119 -0.38672,-14.72237 -0.58008,-22.08355 -5.34114,0 -10.68229,0 -16.02343,0 -0.40951,7.36118 -0.81901,14.72236 -1.22852,22.08355 z" />
    <path
       style="opacity:1;fill:#ffccaa;fill-opacity:1;stroke:none;stroke-width:0.499999;stroke-linecap:round;stroke-linejoin:round;stroke-miterlimit:4;stroke-dasharray:0.499999, 1;stroke-dashoffset:0;stroke-opacity:1"
       d="m 152.31256,134.50879 1.22852,-22.08355 h 16.02343 l -14.37478,1.6939 z"
       id="path619020" />
    <path
       style="opacity:1;fill:#ff9955;fill-opacity:1;stroke:none;stroke-width:0.499999;stroke-linecap:round;stroke-linejoin:round;stroke-miterlimit:4;stroke-dasharray:0.499999, 1;stroke-dashoffset:0;stroke-opacity:1"
       d="m 152.31256,134.50879 h 17.83203 l -0.58008,-22.08355 -1.41957,20.38758 z"
       id="path620987" />
    <path
       id="path620916"
       style="opacity:1;fill:none;fill-opacity:1;stroke:#a05a2c;stroke-width:1;stroke-linecap:round;stroke-linejoin:round;stroke-miterlimit:4;stroke-dasharray:none;stroke-dashoffset:0;stroke-opacity:1"
       d="m 152.31256,134.50879 c 5.94401,0 11.88802,0 17.83203,0 -0.19336,-7.36119 -0.38672,-14.72237 -0.58008,-22.08355 -5.34114,0 -10.68229,0 -16.02343,0 -0.40951,7.36118 -0.81901,14.72236 -1.22852,22.08355 z" />
    <path
       id="rect622530"
       style="opacity:1;fill:#e6e6e6;stroke-width:0.499999;stroke-linecap:round;stroke-linejoin:round;stroke-dasharray:0.499999, 1"
       d="m 185.39637,124.13894 -4.33927,-4.33927 v 3.70158 l -9.40976,-1.38338 V 126.16 l 9.40976,-1.38338 v 3.70159 z" />
    <path
       id="path625409"
       style="opacity:1;fill:#e6e6e6;stroke-width:0.499999;stroke-linecap:round;stroke-linejoin:round;stroke-dasharray:0.499999, 1"
       d="m 137.28195,124.13894 4.33927,-4.33927 v 3.70158 l 9.40976,-1.38338 V 126.16 l -9.40976,-1.38338 v 3.70159 z" />
  </g>
</svg>
